<svg width="375" height="1017" viewBox="0 0 375 1017" fill="none" xmlns="http://www.w3.org/2000/svg">
<path fill-rule="evenodd" clip-rule="evenodd" d="M375 247.917C374.305 248.412 373.603 248.907 372.895 249.401C372.555 249.638 372.472 250.105 372.709 250.445C372.946 250.785 373.413 250.868 373.753 250.631C374.171 250.339 374.587 250.048 375 249.756V247.917ZM375 645.608C374.658 645.545 374.308 645.729 374.172 646.063C374.016 646.447 374.201 646.885 374.584 647.041L375 647.21V645.608ZM316.753 4.63078L321.436 0.685547L325.381 5.36904L320.698 9.31428L316.753 4.63078ZM329.894 6.69205C329.483 6.63956 329.193 6.26393 329.245 5.85306C329.298 5.44218 329.673 5.15165 330.084 5.20414C332.111 5.46308 334.104 5.74834 336.064 6.05925C336.473 6.12415 336.752 6.50841 336.687 6.9175C336.622 7.3266 336.238 7.60562 335.829 7.54072C333.885 7.23223 331.906 6.9491 329.894 6.69205ZM341.694 8.56688C341.287 8.48889 341.021 8.09589 341.099 7.68908C341.177 7.28228 341.57 7.01572 341.977 7.09371C343.962 7.47443 345.912 7.88263 347.826 8.31755C348.23 8.40934 348.483 8.81119 348.391 9.2151C348.299 9.61902 347.897 9.87205 347.493 9.78026C345.596 9.34918 343.663 8.94445 341.694 8.56688ZM353.284 11.2067C352.884 11.1002 352.646 10.6894 352.752 10.2891C352.859 9.88882 353.27 9.65063 353.67 9.75709C355.639 10.2809 357.568 10.8343 359.458 11.4164C359.854 11.5383 360.076 11.958 359.954 12.3539C359.832 12.7498 359.412 12.9718 359.016 12.8499C357.146 12.2736 355.235 11.7255 353.284 11.2067ZM364.661 14.7153C364.27 14.5771 364.066 14.1486 364.204 13.7581C364.342 13.3676 364.77 13.163 365.161 13.3011C367.074 13.9779 368.944 14.6856 370.772 15.4231C371.156 15.5781 371.342 16.0152 371.187 16.3993C371.032 16.7834 370.595 16.9691 370.21 16.8141C368.403 16.0848 366.554 15.3848 364.661 14.7153ZM367.909 252.797C368.254 252.567 368.72 252.661 368.949 253.006C369.179 253.351 369.085 253.816 368.74 254.046C367.071 255.156 365.369 256.262 363.632 257.366C363.282 257.588 362.819 257.484 362.597 257.135C362.375 256.785 362.478 256.322 362.828 256.099C364.556 255.002 366.25 253.901 367.909 252.797ZM357.684 259.294C358.038 259.079 358.5 259.192 358.715 259.546C358.93 259.9 358.817 260.361 358.463 260.576C356.753 261.615 355.011 262.651 353.237 263.683C352.879 263.891 352.42 263.769 352.212 263.411C352.003 263.053 352.125 262.594 352.483 262.386C354.248 261.359 355.982 260.328 357.684 259.294ZM347.216 265.386C347.578 265.184 348.035 265.314 348.237 265.676C348.438 266.037 348.309 266.494 347.947 266.696C346.198 267.672 344.419 268.644 342.611 269.612C342.246 269.808 341.792 269.67 341.596 269.305C341.4 268.94 341.538 268.485 341.903 268.29C343.704 267.325 345.475 266.357 347.216 265.386ZM336.544 271.103C336.912 270.913 337.365 271.058 337.554 271.427C337.744 271.795 337.599 272.247 337.23 272.437C335.443 273.356 333.629 274.272 331.786 275.185C331.415 275.368 330.965 275.216 330.781 274.845C330.597 274.474 330.749 274.024 331.12 273.84C332.956 272.931 334.764 272.019 336.544 271.103ZM325.696 276.475C326.07 276.297 326.517 276.456 326.695 276.829C326.874 277.203 326.715 277.651 326.341 277.829C324.515 278.7 322.662 279.566 320.783 280.429C320.407 280.602 319.962 280.437 319.789 280.061C319.616 279.684 319.781 279.239 320.157 279.066C322.03 278.206 323.876 277.343 325.696 276.475ZM314.69 281.532C315.069 281.364 315.512 281.535 315.68 281.914C315.847 282.292 315.676 282.735 315.298 282.903C313.444 283.724 311.566 284.541 309.663 285.354C309.282 285.517 308.841 285.34 308.678 284.959C308.516 284.579 308.692 284.138 309.073 283.975C310.971 283.164 312.843 282.35 314.69 281.532ZM303.538 286.299C303.921 286.141 304.36 286.324 304.518 286.707C304.676 287.089 304.493 287.528 304.11 287.686C302.252 288.453 300.37 289.217 298.465 289.976C298.08 290.13 297.644 289.942 297.49 289.557C297.337 289.173 297.525 288.736 297.909 288.583C299.809 287.826 301.685 287.064 303.538 286.299ZM292.245 290.804C292.632 290.655 293.066 290.847 293.215 291.234C293.364 291.62 293.171 292.054 292.785 292.203C290.926 292.92 289.046 293.633 287.144 294.342C286.756 294.486 286.324 294.289 286.179 293.901C286.034 293.513 286.232 293.081 286.62 292.936C288.517 292.229 290.392 291.518 292.245 290.804ZM280.865 295.047C281.255 294.906 281.684 295.108 281.825 295.498C281.966 295.888 281.764 296.318 281.374 296.458C279.502 297.133 277.61 297.805 275.697 298.473C275.306 298.61 274.878 298.404 274.742 298.013C274.605 297.622 274.811 297.194 275.202 297.057C277.11 296.391 278.998 295.721 280.865 295.047ZM269.474 299.027C269.866 298.894 270.292 299.104 270.425 299.497C270.557 299.889 270.347 300.315 269.955 300.448C268.029 301.099 266.083 301.747 264.117 302.391C263.724 302.52 263.3 302.306 263.171 301.912C263.042 301.519 263.257 301.095 263.65 300.966C265.612 300.323 267.553 299.677 269.474 299.027ZM257.958 302.803C258.353 302.677 258.775 302.896 258.9 303.29C259.026 303.685 258.807 304.107 258.412 304.232C256.492 304.843 254.553 305.449 252.595 306.052C252.199 306.174 251.78 305.952 251.658 305.556C251.536 305.16 251.758 304.741 252.154 304.619C254.107 304.017 256.042 303.412 257.958 302.803ZM246.307 306.392C246.704 306.274 247.122 306.499 247.24 306.896C247.359 307.293 247.133 307.711 246.736 307.829C244.832 308.398 242.911 308.963 240.973 309.525C240.575 309.64 240.159 309.411 240.044 309.014C239.928 308.616 240.157 308.2 240.555 308.084C242.49 307.524 244.407 306.96 246.307 306.392ZM234.699 309.756C235.097 309.644 235.512 309.877 235.624 310.275C235.736 310.674 235.503 311.088 235.105 311.2C233.157 311.748 231.191 312.292 229.209 312.833C228.809 312.942 228.397 312.707 228.288 312.307C228.179 311.908 228.415 311.495 228.814 311.386C230.793 310.846 232.754 310.303 234.699 309.756ZM223.024 312.943C223.424 312.837 223.835 313.075 223.941 313.476C224.047 313.876 223.808 314.287 223.408 314.393C221.458 314.91 219.492 315.423 217.509 315.933C217.108 316.036 216.699 315.794 216.596 315.393C216.493 314.992 216.734 314.583 217.135 314.48C219.115 313.971 221.077 313.459 223.024 312.943ZM211.195 315.985C211.596 315.885 212.004 316.129 212.104 316.531C212.204 316.933 211.96 317.34 211.558 317.441C209.633 317.921 207.692 318.399 205.737 318.873C205.334 318.971 204.929 318.724 204.831 318.321C204.734 317.918 204.981 317.513 205.383 317.415C207.336 316.942 209.273 316.465 211.195 315.985ZM199.481 318.826C199.884 318.731 200.288 318.981 200.383 319.384C200.477 319.788 200.228 320.191 199.824 320.286C197.838 320.754 195.837 321.219 193.82 321.68C193.416 321.772 193.014 321.52 192.922 321.116C192.829 320.712 193.082 320.31 193.486 320.218C195.499 319.757 197.498 319.293 199.481 318.826ZM187.645 321.535C188.049 321.445 188.45 321.7 188.539 322.104C188.629 322.509 188.374 322.909 187.97 322.999C186.014 323.434 184.043 323.866 182.059 324.294C181.654 324.382 181.255 324.125 181.167 323.72C181.08 323.315 181.337 322.916 181.742 322.828C183.724 322.4 185.691 321.969 187.645 321.535ZM175.754 324.103C176.159 324.018 176.557 324.278 176.642 324.683C176.727 325.088 176.467 325.486 176.062 325.571C175.696 325.648 175.331 325.724 174.964 325.8C174.684 325.859 174.403 325.918 174.121 325.976C173.758 326.051 173.395 326.127 173.031 326.202C172.041 326.407 171.055 326.616 170.074 326.829C169.669 326.917 169.27 326.66 169.182 326.255C169.094 325.851 169.35 325.451 169.755 325.363C170.742 325.149 171.732 324.939 172.727 324.733C173.131 324.65 173.534 324.566 173.937 324.482C174.544 324.356 175.149 324.23 175.754 324.103ZM163.887 326.702C164.29 326.606 164.695 326.854 164.791 327.257C164.887 327.66 164.639 328.065 164.236 328.161C162.272 328.631 160.325 329.118 158.397 329.622C157.996 329.727 157.586 329.487 157.481 329.087C157.376 328.686 157.616 328.276 158.017 328.171C159.956 327.664 161.913 327.174 163.887 326.702ZM152.204 329.76C152.602 329.646 153.017 329.877 153.131 330.275C153.244 330.674 153.013 331.089 152.615 331.202C150.68 331.754 148.763 332.323 146.865 332.91C146.469 333.032 146.049 332.81 145.927 332.415C145.805 332.019 146.026 331.599 146.422 331.477C148.331 330.887 150.258 330.314 152.204 329.76ZM140.666 333.328C141.059 333.197 141.484 333.409 141.615 333.802C141.747 334.194 141.535 334.619 141.142 334.751C139.236 335.388 137.349 336.044 135.483 336.717C135.094 336.857 134.664 336.655 134.523 336.266C134.383 335.876 134.585 335.446 134.974 335.306C136.851 334.629 138.749 333.969 140.666 333.328ZM129.322 337.421C129.708 337.271 130.143 337.463 130.293 337.849C130.443 338.235 130.251 338.67 129.865 338.819C127.985 339.549 126.126 340.297 124.29 341.063C123.908 341.222 123.469 341.042 123.309 340.659C123.15 340.277 123.33 339.838 123.713 339.678C125.561 338.908 127.431 338.155 129.322 337.421ZM118.177 342.069C118.555 341.9 118.998 342.07 119.168 342.448C119.337 342.826 119.167 343.27 118.789 343.439C116.954 344.259 115.142 345.098 113.353 345.955C112.98 346.134 112.532 345.976 112.353 345.602C112.174 345.229 112.332 344.781 112.705 344.602C114.506 343.74 116.329 342.895 118.177 342.069ZM107.283 347.289C107.652 347.1 108.104 347.245 108.293 347.614C108.482 347.983 108.336 348.435 107.967 348.624C106.176 349.542 104.41 350.478 102.669 351.433C102.306 351.632 101.85 351.499 101.651 351.135C101.452 350.772 101.585 350.316 101.948 350.117C103.701 349.156 105.479 348.213 107.283 347.289ZM96.7045 353.09C97.0619 352.88 97.5214 353 97.7308 353.358C97.9402 353.715 97.8203 354.174 97.4629 354.384C95.7248 355.402 94.0141 356.439 92.3311 357.493C91.98 357.713 91.5172 357.607 91.2973 357.256C91.0774 356.905 91.1837 356.442 91.5348 356.222C93.2304 355.16 94.9538 354.116 96.7045 353.09ZM86.4584 359.511C86.8026 359.28 87.2684 359.372 87.4989 359.716C87.7294 360.06 87.6373 360.526 87.2932 360.757C85.6214 361.877 83.9792 363.014 82.3669 364.169C82.0302 364.411 81.5616 364.333 81.3204 363.997C81.0792 363.66 81.1566 363.191 81.4933 362.95C83.1186 361.786 84.7737 360.639 86.4584 359.511ZM76.6459 366.543C76.9746 366.291 77.4454 366.353 77.6975 366.682C77.9495 367.01 77.8874 367.481 77.5587 367.733C75.9625 368.957 74.3982 370.199 72.8662 371.458C72.5461 371.721 72.0735 371.674 71.8105 371.354C71.5476 371.034 71.5938 370.562 71.9139 370.299C73.459 369.029 75.0365 367.777 76.6459 366.543ZM67.3049 374.221C67.6156 373.948 68.0896 373.977 68.3635 374.288C68.6375 374.599 68.6077 375.073 68.297 375.347C66.7878 376.677 65.3132 378.026 63.8735 379.39C63.5729 379.675 63.0982 379.663 62.8133 379.362C62.5283 379.061 62.541 378.587 62.8416 378.302C64.2945 376.924 65.7824 375.564 67.3049 374.221ZM58.5332 382.54C58.823 382.244 59.2979 382.239 59.5938 382.529C59.8898 382.819 59.8948 383.294 59.605 383.59C58.1999 385.025 56.8319 386.477 55.5015 387.944C55.2234 388.251 54.7491 388.275 54.4421 387.997C54.1352 387.718 54.1119 387.244 54.3901 386.937C55.7335 385.455 57.1147 383.989 58.5332 382.54ZM50.4231 391.492C50.6888 391.175 51.1618 391.133 51.4796 391.398C51.7974 391.664 51.8396 392.137 51.5739 392.455C50.2838 393.997 49.0341 395.556 47.8249 397.13C47.5726 397.459 47.1017 397.52 46.7733 397.268C46.4448 397.016 46.3831 396.545 46.6354 396.216C47.8573 394.626 49.12 393.051 50.4231 391.492ZM43.0505 401.095C43.2886 400.756 43.7563 400.674 44.0953 400.912C44.4343 401.15 44.5161 401.618 44.2781 401.957C43.1242 403.6 42.0135 405.258 40.9464 406.93C40.7235 407.279 40.2598 407.381 39.9106 407.158C39.5615 406.936 39.4591 406.472 39.6819 406.123C40.7611 404.432 41.8841 402.755 43.0505 401.095ZM36.5428 411.297C36.7495 410.938 37.2081 410.814 37.567 411.021C37.926 411.228 38.0495 411.686 37.8428 412.045C36.8427 413.782 35.8885 415.533 34.9807 417.297C34.7912 417.665 34.339 417.81 33.9707 417.621C33.6024 417.431 33.4575 416.979 33.647 416.611C34.5656 414.826 35.5311 413.054 36.5428 411.297ZM31.0081 422.057C31.1796 421.68 31.6243 421.514 32.0013 421.685C32.3784 421.857 32.545 422.301 32.3736 422.678C31.545 424.5 30.7651 426.335 30.0345 428.18C29.8821 428.565 29.4462 428.754 29.0611 428.601C28.676 428.449 28.4874 428.013 28.6398 427.628C29.3797 425.759 30.1693 423.902 31.0081 422.057ZM26.5552 433.312C26.6878 432.92 27.1134 432.709 27.5059 432.842C27.8983 432.974 28.1089 433.4 27.9763 433.792C27.3365 435.686 26.7479 437.59 26.2109 439.503C26.099 439.902 25.685 440.134 25.2862 440.022C24.8874 439.911 24.6548 439.496 24.7668 439.098C25.3108 437.159 25.9072 435.23 26.5552 433.312ZM23.2854 444.972C23.376 444.567 23.777 444.313 24.1812 444.404C24.5854 444.494 24.8397 444.895 24.7492 445.299C24.3131 447.247 23.9301 449.203 23.6007 451.166C23.5322 451.574 23.1455 451.85 22.737 451.781C22.3285 451.713 22.0529 451.326 22.1214 450.918C22.4553 448.928 22.8435 446.945 23.2854 444.972ZM21.2826 456.918C21.3287 456.506 21.6997 456.21 22.1114 456.256C22.523 456.302 22.8194 456.673 22.7733 457.085C22.5517 459.064 22.3845 461.049 22.2721 463.039C22.2487 463.453 21.8945 463.769 21.481 463.746C21.0674 463.722 20.7511 463.368 20.7744 462.955C20.8884 460.937 21.058 458.924 21.2826 456.918ZM20.6 469.01C20.6005 468.596 20.9367 468.26 21.3509 468.261C21.7651 468.261 22.1005 468.597 22.1 469.012C22.0977 470.999 22.15 472.99 22.2577 474.984C22.28 475.398 21.9628 475.751 21.5492 475.774C21.1356 475.796 20.7822 475.479 20.7598 475.065C20.6507 473.043 20.5977 471.024 20.6 469.01ZM21.2518 481.102C21.2069 480.69 21.5043 480.32 21.9161 480.275C22.3279 480.23 22.6981 480.528 22.743 480.94C22.851 481.93 22.9728 482.922 23.1083 483.913C23.2477 484.933 23.3959 485.943 23.5527 486.943C23.6169 487.352 23.3372 487.736 22.928 487.8C22.5188 487.864 22.135 487.584 22.0708 487.175C21.9125 486.166 21.7628 485.146 21.6221 484.116C21.4847 483.111 21.3613 482.106 21.2518 481.102ZM23.1382 493.179C23.0573 492.773 23.321 492.378 23.7272 492.297C24.1334 492.216 24.5284 492.48 24.6093 492.886C25.009 494.891 25.4453 496.854 25.9167 498.774C26.0155 499.176 25.7694 499.582 25.3672 499.681C24.9649 499.78 24.5587 499.534 24.46 499.132C23.9832 497.19 23.5422 495.206 23.1382 493.179ZM26.0534 505.026C25.9359 504.629 26.1625 504.211 26.5597 504.094C26.9569 503.976 27.3742 504.203 27.4917 504.6C28.0734 506.565 28.694 508.484 29.3519 510.356C29.4892 510.747 29.2837 511.175 28.8929 511.312C28.5021 511.45 28.074 511.244 27.9367 510.853C27.2704 508.957 26.6421 507.015 26.0534 505.026ZM30.1163 516.574C29.9586 516.191 30.1411 515.752 30.5241 515.594C30.9071 515.437 31.3455 515.619 31.5033 516.002C32.2809 517.89 33.0988 519.729 33.955 521.519C34.1337 521.893 33.9757 522.341 33.602 522.519C33.2283 522.698 32.7805 522.54 32.6018 522.166C31.7336 520.351 30.9045 518.487 30.1163 516.574ZM35.3991 527.61C35.1992 527.247 35.3313 526.791 35.694 526.591C36.0568 526.391 36.513 526.523 36.7129 526.886C37.695 528.668 38.7175 530.399 39.7782 532.081C39.9992 532.431 39.8944 532.894 39.544 533.115C39.1937 533.336 38.7306 533.231 38.5096 532.881C37.433 531.174 36.3955 529.418 35.3991 527.61ZM41.9293 537.957C41.6877 537.621 41.7644 537.152 42.1008 536.91C42.4372 536.669 42.9058 536.745 43.1475 537.082C44.3308 538.729 45.5533 540.324 46.8124 541.87C47.074 542.191 47.0258 542.664 46.7046 542.925C46.3834 543.187 45.911 543.138 45.6494 542.817C44.3713 541.248 43.1305 539.629 41.9293 537.957ZM49.6571 547.446C49.3767 547.141 49.3965 546.666 49.7014 546.386C50.0063 546.106 50.4807 546.125 50.7611 546.43C52.1309 547.92 53.537 549.359 54.9769 550.75C55.2748 551.038 55.2829 551.513 54.9951 551.81C54.7073 552.108 54.2325 552.116 53.9346 551.829C52.4739 550.417 51.0472 548.957 49.6571 547.446ZM58.4574 555.954C58.1436 555.684 58.1083 555.21 58.3787 554.897C58.649 554.583 59.1226 554.547 59.4364 554.818C60.9655 556.135 62.5266 557.405 64.1172 558.631C64.4453 558.884 64.5063 559.354 64.2535 559.683C64.0007 560.011 63.5298 560.072 63.2017 559.819C61.5901 558.577 60.0077 557.29 58.4574 555.954ZM68.143 563.424C67.8023 563.189 67.7169 562.721 67.9524 562.381C68.1878 562.04 68.655 561.955 68.9957 562.19C70.6541 563.336 72.3395 564.439 74.0491 565.501C74.4009 565.719 74.5089 566.182 74.2903 566.534C74.0717 566.886 73.6093 566.994 73.2575 566.775C71.5279 565.7 69.8221 564.584 68.143 563.424ZM78.5219 569.88C78.1605 569.678 78.0316 569.221 78.234 568.86C78.4365 568.498 78.8935 568.369 79.2549 568.572C81.0136 569.557 82.7937 570.503 84.5924 571.414C84.962 571.601 85.11 572.052 84.9229 572.422C84.7358 572.791 84.2846 572.939 83.915 572.752C82.0983 571.832 80.2996 570.876 78.5219 569.88ZM89.4174 575.403C89.0408 575.23 88.8756 574.785 89.0482 574.409C89.2209 574.032 89.666 573.867 90.0426 574.039C91.8764 574.88 93.726 575.687 95.5884 576.463C95.9708 576.622 96.1517 577.061 95.9924 577.444C95.8332 577.826 95.3941 578.007 95.0117 577.848C93.1337 577.066 91.2679 576.251 89.4174 575.403ZM100.683 580.102C100.296 579.955 100.101 579.522 100.248 579.135C100.395 578.748 100.828 578.553 101.215 578.7C103.104 579.416 105.004 580.104 106.91 580.765C107.302 580.9 107.509 581.328 107.373 581.719C107.238 582.11 106.81 582.318 106.419 582.182C104.5 581.517 102.587 580.824 100.683 580.102ZM112.208 584.103C111.813 583.978 111.594 583.556 111.72 583.161C111.845 582.766 112.267 582.548 112.662 582.673C114.591 583.287 116.525 583.875 118.46 584.442C118.858 584.558 119.086 584.975 118.97 585.372C118.853 585.77 118.437 585.998 118.039 585.881C116.094 585.312 114.149 584.72 112.208 584.103ZM123.905 587.533C123.505 587.424 123.269 587.012 123.377 586.613C123.486 586.213 123.898 585.977 124.297 586.085C126.256 586.616 128.213 587.126 130.165 587.619C130.567 587.72 130.81 588.128 130.709 588.529C130.607 588.931 130.2 589.174 129.798 589.073C127.838 588.578 125.873 588.066 123.905 587.533ZM135.712 590.518C135.309 590.423 135.06 590.019 135.156 589.616C135.251 589.213 135.655 588.963 136.058 589.059C138.041 589.528 140.015 589.982 141.977 590.423C142.382 590.514 142.636 590.915 142.545 591.319C142.454 591.723 142.053 591.977 141.649 591.887C139.681 591.445 137.701 590.989 135.712 590.518ZM147.596 593.193C147.191 593.106 146.933 592.707 147.021 592.302C147.108 591.897 147.507 591.64 147.912 591.727C148.903 591.94 149.89 592.151 150.873 592.359C151.389 592.469 151.905 592.578 152.42 592.686C152.915 592.791 153.41 592.895 153.904 592.998C154.309 593.083 154.569 593.481 154.484 593.886C154.399 594.291 154.001 594.551 153.596 594.466C153.012 594.344 152.426 594.221 151.84 594.097C151.414 594.007 150.988 593.917 150.562 593.827C149.577 593.618 148.589 593.407 147.596 593.193ZM159.616 595.713C159.21 595.63 158.948 595.233 159.031 594.828C159.115 594.422 159.511 594.16 159.917 594.243C161.942 594.658 163.953 595.064 165.949 595.464C166.355 595.545 166.619 595.94 166.537 596.346C166.456 596.752 166.061 597.016 165.655 596.934C163.656 596.535 161.644 596.128 159.616 595.713ZM171.706 598.132C171.299 598.052 171.034 597.658 171.114 597.251C171.193 596.845 171.587 596.58 171.994 596.659C174.022 597.056 176.035 597.446 178.035 597.829C178.442 597.907 178.708 598.3 178.63 598.707C178.552 599.114 178.159 599.38 177.753 599.302C175.751 598.919 173.736 598.529 171.706 598.132ZM183.797 600.45C183.39 600.373 183.122 599.981 183.199 599.574C183.275 599.167 183.667 598.899 184.074 598.976C186.101 599.357 188.114 599.732 190.114 600.101C190.521 600.177 190.79 600.568 190.715 600.975C190.64 601.383 190.249 601.652 189.841 601.576C187.84 601.207 185.826 600.831 183.797 600.45ZM195.908 602.689C195.501 602.615 195.23 602.224 195.305 601.817C195.379 601.409 195.769 601.139 196.177 601.213C197.122 601.385 198.065 601.556 199.005 601.726C200.086 601.922 201.163 602.116 202.237 602.309C202.645 602.383 202.916 602.773 202.843 603.18C202.769 603.588 202.379 603.859 201.972 603.786C199.963 603.425 197.942 603.059 195.908 602.689ZM208.033 604.87C207.625 604.798 207.354 604.408 207.426 604C207.499 603.593 207.888 603.321 208.296 603.393L209.548 603.616L210.814 603.841C211.998 604.052 213.178 604.261 214.354 604.469C214.762 604.541 215.034 604.93 214.962 605.338C214.89 605.746 214.501 606.018 214.093 605.946C212.084 605.59 210.065 605.232 208.033 604.87ZM220.151 607.017C219.744 606.945 219.471 606.556 219.543 606.148C219.615 605.74 220.004 605.468 220.412 605.54L220.967 605.638C222.81 605.963 224.644 606.287 226.47 606.611C226.878 606.683 227.15 607.072 227.078 607.48C227.006 607.888 226.617 608.16 226.209 608.088C224.923 607.86 223.632 607.632 222.338 607.403L221.654 607.283L221.135 607.191L220.151 607.017ZM232.273 609.163C231.865 609.091 231.594 608.701 231.666 608.293C231.739 607.886 232.128 607.614 232.536 607.686C233.797 607.911 235.055 608.135 236.309 608.36C237.074 608.497 237.837 608.634 238.6 608.771C239.007 608.844 239.279 609.234 239.205 609.642C239.132 610.049 238.742 610.32 238.334 610.247C236.322 609.885 234.302 609.524 232.273 609.163ZM244.391 611.344C243.983 611.269 243.713 610.879 243.788 610.471C243.862 610.064 244.253 609.794 244.66 609.868C246.686 610.238 248.704 610.609 250.717 610.983C251.124 611.059 251.393 611.45 251.317 611.858C251.241 612.265 250.85 612.534 250.443 612.458C248.432 612.084 246.415 611.713 244.391 611.344ZM256.489 613.595C256.082 613.517 255.815 613.125 255.892 612.718C255.97 612.311 256.362 612.044 256.769 612.121C258.79 612.505 260.805 612.894 262.817 613.287C263.223 613.366 263.488 613.76 263.409 614.167C263.329 614.573 262.936 614.838 262.529 614.759C260.52 614.366 258.507 613.979 256.489 613.595ZM268.562 615.956C268.156 615.874 267.893 615.479 267.975 615.073C268.057 614.667 268.453 614.404 268.859 614.486C270.873 614.891 272.884 615.303 274.894 615.722C275.299 615.807 275.56 616.204 275.475 616.609C275.391 617.015 274.993 617.275 274.588 617.19C272.582 616.772 270.573 616.361 268.562 615.956ZM280.605 618.467C280.2 618.38 279.943 617.981 280.03 617.576C280.118 617.171 280.517 616.914 280.922 617.001C282.928 617.435 284.934 617.876 286.94 618.327C287.344 618.418 287.598 618.819 287.507 619.223C287.416 619.627 287.015 619.881 286.611 619.79C284.609 619.341 282.607 618.9 280.605 618.467ZM292.604 621.164C292.201 621.07 291.951 620.666 292.045 620.263C292.139 619.86 292.543 619.609 292.946 619.703C294.942 620.17 296.939 620.647 298.939 621.135C299.342 621.233 299.589 621.639 299.49 622.041C299.392 622.443 298.987 622.69 298.584 622.592C296.589 622.106 294.596 621.63 292.604 621.164ZM304.549 624.078C304.148 623.976 303.905 623.567 304.007 623.166C304.109 622.764 304.517 622.522 304.919 622.624C306.903 623.129 308.891 623.645 310.883 624.175C311.284 624.281 311.522 624.692 311.416 625.092C311.309 625.492 310.899 625.731 310.498 625.624C308.511 625.096 306.528 624.581 304.549 624.078ZM316.431 627.234C316.032 627.124 315.798 626.71 315.909 626.311C316.02 625.912 316.433 625.678 316.832 625.789C318.804 626.335 320.781 626.895 322.765 627.469C323.162 627.584 323.392 628 323.277 628.398C323.161 628.796 322.746 629.025 322.348 628.91C320.37 628.338 318.398 627.779 316.431 627.234ZM328.247 630.654C327.85 630.534 327.626 630.115 327.745 629.719C327.865 629.322 328.284 629.098 328.68 629.218C330.637 629.808 332.602 630.413 334.574 631.034C334.969 631.158 335.189 631.579 335.065 631.974C334.94 632.37 334.519 632.589 334.124 632.465C332.157 631.846 330.198 631.243 328.247 630.654ZM339.971 634.342C339.578 634.213 339.363 633.789 339.492 633.396C339.621 633.002 340.045 632.787 340.438 632.916C342.377 633.551 344.324 634.202 346.281 634.868C346.673 635.002 346.883 635.428 346.749 635.82C346.616 636.212 346.189 636.422 345.797 636.288C343.846 635.624 341.905 634.975 339.971 634.342ZM351.603 638.304C351.212 638.166 351.008 637.737 351.146 637.347C351.284 636.956 351.713 636.752 352.103 636.89C354.027 637.571 355.961 638.268 357.906 638.981C358.294 639.124 358.494 639.555 358.351 639.944C358.208 640.333 357.778 640.532 357.389 640.389C355.45 639.678 353.521 638.983 351.603 638.304ZM363.157 642.545C362.769 642.398 362.575 641.964 362.722 641.577C362.869 641.19 363.303 640.996 363.69 641.143C365.594 641.867 367.508 642.608 369.434 643.365C369.82 643.517 370.009 643.952 369.857 644.338C369.706 644.723 369.27 644.913 368.885 644.761C366.964 644.005 365.055 643.267 363.157 642.545ZM373.292 935.355C373.673 935.193 374.114 935.371 374.275 935.753C374.437 936.134 374.259 936.574 373.877 936.736C372.013 937.526 370.133 938.31 368.238 939.086C367.854 939.243 367.416 939.06 367.259 938.677C367.102 938.293 367.286 937.855 367.669 937.698C369.558 936.924 371.433 936.143 373.292 935.355ZM362.026 939.973C362.411 939.82 362.847 940.009 362.999 940.394C363.152 940.779 362.964 941.215 362.579 941.367C360.695 942.114 358.799 942.854 356.888 943.588C356.502 943.737 356.068 943.544 355.919 943.157C355.771 942.771 355.964 942.337 356.35 942.188C358.256 941.456 360.148 940.718 362.026 939.973ZM350.657 944.342C351.045 944.198 351.477 944.395 351.622 944.783C351.766 945.171 351.569 945.603 351.181 945.748C349.283 946.455 347.372 947.156 345.45 947.852C345.06 947.992 344.63 947.791 344.489 947.401C344.348 947.012 344.55 946.582 344.94 946.441C346.858 945.747 348.764 945.048 350.657 944.342ZM339.202 948.486C339.592 948.349 340.021 948.554 340.158 948.945C340.295 949.336 340.09 949.764 339.699 949.901C337.789 950.573 335.867 951.238 333.935 951.898C333.543 952.032 333.117 951.823 332.983 951.431C332.849 951.039 333.058 950.613 333.45 950.479C335.378 949.82 337.296 949.156 339.202 948.486ZM327.672 952.426C328.065 952.295 328.489 952.508 328.62 952.901C328.75 953.294 328.538 953.718 328.145 953.849C326.224 954.487 324.294 955.12 322.354 955.748C321.96 955.875 321.537 955.659 321.409 955.265C321.282 954.871 321.498 954.448 321.892 954.321C323.828 953.694 325.755 953.062 327.672 952.426ZM316.077 956.178C316.472 956.054 316.893 956.273 317.018 956.668C317.142 957.063 316.923 957.484 316.528 957.609C314.599 958.217 312.661 958.82 310.715 959.418C310.319 959.54 309.899 959.318 309.778 958.922C309.656 958.526 309.878 958.106 310.274 957.985C312.217 957.387 314.152 956.785 316.077 956.178ZM304.426 959.76C304.823 959.642 305.241 959.867 305.36 960.263C305.479 960.66 305.254 961.078 304.857 961.197C302.921 961.778 300.977 962.354 299.025 962.925C298.628 963.042 298.211 962.814 298.095 962.416C297.979 962.019 298.206 961.602 298.604 961.486C300.553 960.915 302.493 960.34 304.426 959.76ZM292.735 963.184C293.133 963.07 293.548 963.301 293.662 963.699C293.776 964.097 293.546 964.512 293.147 964.626C291.203 965.183 289.25 965.734 287.291 966.282C286.892 966.394 286.479 966.161 286.367 965.762C286.256 965.363 286.489 964.949 286.887 964.837C288.844 964.291 290.793 963.739 292.735 963.184ZM281.007 966.463C281.406 966.354 281.819 966.589 281.928 966.989C282.037 967.388 281.802 967.801 281.402 967.91C279.447 968.444 277.486 968.975 275.518 969.501C275.118 969.608 274.706 969.371 274.599 968.97C274.492 968.57 274.73 968.159 275.13 968.052C277.095 967.526 279.054 966.997 281.007 966.463ZM269.24 969.611C269.64 969.506 270.05 969.746 270.155 970.147C270.26 970.547 270.02 970.957 269.619 971.062C267.655 971.576 265.685 972.087 263.71 972.593C263.308 972.696 262.9 972.455 262.797 972.053C262.694 971.652 262.936 971.243 263.337 971.14C265.31 970.634 267.278 970.125 269.24 969.611ZM257.437 972.638C257.839 972.537 258.246 972.781 258.347 973.183C258.448 973.585 258.205 973.992 257.803 974.093C255.831 974.589 253.853 975.081 251.871 975.569C251.469 975.668 251.063 975.422 250.964 975.02C250.865 974.618 251.11 974.212 251.513 974.113C252.791 973.798 254.068 973.481 255.343 973.163C255.793 973.051 256.243 972.938 256.692 972.825L257.437 972.638ZM245.604 975.554C246.006 975.457 246.412 975.705 246.509 976.107C246.606 976.51 246.359 976.915 245.956 977.012C243.98 977.49 241.999 977.964 240.015 978.435C239.612 978.531 239.207 978.281 239.112 977.878C239.016 977.475 239.265 977.071 239.669 976.975C241.651 976.505 243.63 976.032 245.604 975.554ZM233.743 978.368C234.147 978.274 234.55 978.525 234.644 978.928C234.738 979.332 234.487 979.735 234.084 979.829C232.105 980.29 230.123 980.747 228.137 981.201C227.734 981.294 227.331 981.041 227.239 980.637C227.147 980.234 227.399 979.831 227.803 979.739C229.787 979.285 231.767 978.828 233.743 978.368ZM221.859 981.087C222.263 980.996 222.664 981.25 222.755 981.654C222.846 982.058 222.592 982.459 222.188 982.55C220.207 982.995 218.224 983.438 216.237 983.877C215.832 983.966 215.432 983.711 215.343 983.306C215.253 982.902 215.509 982.501 215.913 982.412C217.898 981.973 219.88 981.532 221.859 981.087ZM209.955 983.718C210.359 983.63 210.759 983.887 210.847 984.291C210.935 984.696 210.678 985.096 210.273 985.184C208.29 985.615 206.304 986.043 204.316 986.468C203.911 986.555 203.512 986.297 203.426 985.892C203.339 985.487 203.597 985.088 204.002 985.001L204.939 984.801L205.619 984.655C206.269 984.515 206.919 984.375 207.569 984.235C207.957 984.151 208.346 984.067 208.734 983.983C209.141 983.895 209.548 983.806 209.955 983.718ZM198.036 986.268C198.441 986.182 198.839 986.442 198.924 986.847C199.01 987.252 198.75 987.65 198.345 987.735C196.358 988.154 194.369 988.569 192.378 988.982C191.972 989.067 191.575 988.806 191.491 988.4C191.407 987.995 191.668 987.598 192.073 987.514C194.063 987.101 196.05 986.686 198.036 986.268ZM186.103 988.743C186.509 988.66 186.905 988.922 186.988 989.327C187.071 989.733 186.809 990.13 186.403 990.212C185.407 990.416 184.41 990.619 183.413 990.821C182.436 991.02 181.457 991.217 180.476 991.413C180.07 991.494 179.675 991.231 179.593 990.825C179.512 990.419 179.775 990.023 180.182 989.942C181.162 989.746 182.139 989.549 183.114 989.351C183.687 989.235 184.26 989.119 184.833 989.002C185.256 988.916 185.68 988.829 186.103 988.743ZM174.273 991.107C174.68 991.028 175.073 991.294 175.152 991.7C175.231 992.107 174.966 992.501 174.559 992.58C172.578 992.965 170.587 993.346 168.587 993.724C168.18 993.801 167.787 993.534 167.71 993.127C167.633 992.72 167.901 992.327 168.308 992.251C170.306 991.873 172.294 991.492 174.273 991.107ZM162.407 993.35C162.814 993.275 163.205 993.545 163.28 993.952C163.355 994.36 163.085 994.751 162.678 994.826C160.702 995.189 158.717 995.549 156.724 995.905C156.316 995.978 155.926 995.706 155.853 995.299C155.78 994.891 156.052 994.501 156.46 994.428C158.45 994.072 160.433 993.713 162.407 993.35ZM150.504 995.479C150.912 995.408 151.3 995.681 151.371 996.089C151.442 996.497 151.169 996.886 150.761 996.957C148.789 997.3 146.81 997.64 144.823 997.976C144.414 998.045 144.027 997.77 143.958 997.362C143.889 996.954 144.164 996.567 144.572 996.497C146.557 996.161 148.534 995.822 150.504 995.479ZM138.596 997.496C139.005 997.429 139.391 997.706 139.458 998.114C139.525 998.523 139.249 998.909 138.84 998.976C136.863 999.302 134.879 999.625 132.888 999.945C132.479 1000.01 132.094 999.733 132.029 999.324C131.963 998.915 132.241 998.53 132.65 998.464C134.639 998.145 136.621 997.822 138.596 997.496ZM126.692 999.409C127.101 999.345 127.485 999.625 127.549 1000.03C127.613 1000.44 127.333 1000.83 126.924 1000.89C124.93 1001.2 122.93 1001.51 120.923 1001.82C120.514 1001.88 120.131 1001.6 120.069 1001.19C120.006 1000.78 120.288 1000.4 120.697 1000.33C122.702 1000.03 124.7 999.721 126.692 999.409ZM114.754 1001.23C115.163 1001.17 115.545 1001.45 115.606 1001.86C115.667 1002.27 115.384 1002.65 114.974 1002.71C112.985 1003.01 110.99 1003.3 108.989 1003.59C108.58 1003.65 108.199 1003.37 108.14 1002.96C108.08 1002.55 108.365 1002.17 108.774 1002.11C110.773 1001.82 112.766 1001.52 114.754 1001.23ZM102.786 1002.96C103.196 1002.91 103.576 1003.19 103.634 1003.6C103.692 1004.01 103.406 1004.39 102.996 1004.45C101.012 1004.73 99.022 1005.01 97.0273 1005.28C96.6169 1005.34 96.2385 1005.05 96.182 1004.64C96.1255 1004.23 96.4123 1003.85 96.8227 1003.79C98.8158 1003.52 100.804 1003.24 102.786 1002.96ZM90.8281 1004.61C91.2386 1004.55 91.6161 1004.84 91.6712 1005.25C91.7263 1005.66 91.4382 1006.04 91.0277 1006.1C89.0359 1006.36 87.0392 1006.63 85.0379 1006.89C84.6272 1006.94 84.2506 1006.66 84.1969 1006.24C84.1431 1005.83 84.4325 1005.46 84.8432 1005.4C86.8429 1005.14 88.838 1004.88 90.8281 1004.61ZM78.8639 1006.18C79.2748 1006.12 79.6504 1006.41 79.7029 1006.83C79.7553 1007.24 79.4648 1007.61 79.0539 1007.66C77.9709 1007.8 76.8865 1007.94 75.8008 1008.08C75.3214 1008.14 74.8417 1008.2 74.3617 1008.26C73.9225 1008.31 73.483 1008.37 73.0433 1008.42C72.6323 1008.47 72.2576 1008.18 72.2064 1007.77C72.1552 1007.36 72.4469 1006.99 72.8579 1006.93C74.8643 1006.68 76.8663 1006.43 78.8639 1006.18ZM66.8737 1007.67C67.2849 1007.62 67.6587 1007.91 67.7087 1008.32C67.7586 1008.74 67.4658 1009.11 67.0546 1009.16C66.0855 1009.28 65.1154 1009.39 64.1443 1009.51C63.1169 1009.63 62.0883 1009.76 61.0588 1009.88C60.6475 1009.93 60.2745 1009.63 60.2257 1009.22C60.177 1008.81 60.4709 1008.44 60.8823 1008.39C62.8833 1008.15 64.8805 1007.91 66.8737 1007.67ZM54.868 1009.09C55.2795 1009.05 55.6517 1009.34 55.6992 1009.75C55.7468 1010.16 55.4518 1010.54 55.0403 1010.58C53.0472 1010.81 51.0504 1011.04 49.0504 1011.27C48.6388 1011.31 48.2675 1011.02 48.221 1010.61C48.1746 1010.19 48.4707 1009.82 48.8823 1009.78C50.881 1009.55 52.8763 1009.32 54.868 1009.09ZM42.8814 1010.44C43.2932 1010.4 43.6637 1010.7 43.709 1011.11C43.7543 1011.52 43.4572 1011.89 43.0455 1011.94C41.0414 1012.16 39.0342 1012.37 37.0239 1012.59C36.6121 1012.63 36.2424 1012.34 36.1982 1011.92C36.154 1011.51 36.452 1011.14 36.8638 1011.1C38.8727 1010.88 40.8787 1010.67 42.8814 1010.44ZM30.8724 1011.73C31.2844 1011.69 31.6533 1011.99 31.6965 1012.4C31.7396 1012.81 31.4406 1013.18 31.0287 1013.23C29.3487 1013.4 27.6668 1013.58 25.9831 1013.75L25.0168 1013.85C24.6048 1013.89 24.2366 1013.59 24.1945 1013.18C24.1524 1012.77 24.4524 1012.4 24.8644 1012.36C26.8698 1012.15 28.8725 1011.94 30.8724 1011.73ZM18.8472 1012.96C19.2594 1012.92 19.6268 1013.22 19.6679 1013.63C19.709 1014.05 19.4081 1014.41 18.9959 1014.46C16.997 1014.65 14.9956 1014.85 12.9921 1015.05C12.5798 1015.09 12.2131 1014.78 12.1731 1014.37C12.133 1013.96 12.4347 1013.59 12.847 1013.55C14.8493 1013.36 16.8495 1013.16 18.8472 1012.96ZM6.83353 1014.13C7.24588 1014.09 7.61185 1014.39 7.65094 1014.81C7.69003 1015.22 7.38742 1015.58 6.97507 1015.62C4.96994 1015.81 2.96283 1016 0.953859 1016.19C0.541383 1016.23 0.176119 1015.92 0.138002 1015.51C0.0998552 1015.1 0.403322 1014.73 0.815767 1014.69C2.82361 1014.51 4.82956 1014.32 6.83353 1014.13Z" fill="#263D4E" fill-opacity="0.7"/>
<g filter="url(#filter0_d_130_11)">
<circle cx="344.456" cy="945.875" r="7.5" stroke="#DCEEFF" stroke-width="6"/>
<g filter="url(#filter1_d_130_11)">
<circle cx="344.456" cy="945.875" r="7.5" stroke="#BCDEFF" stroke-width="2.5" shape-rendering="crispEdges"/>
</g>
<path d="M332.838 868.94C346.838 875.44 360.338 907.44 344.838 937.44" stroke="#BCDEFF" stroke-width="1.5" stroke-linecap="round"/>
</g>
<g filter="url(#filter2_d_130_11)">
<circle cx="44.156" cy="539.734" r="7.5" transform="rotate(-10.6305 44.156 539.734)" stroke="#DCEEFF" stroke-width="6"/>
<g filter="url(#filter3_d_130_11)">
<circle cx="44.156" cy="539.734" r="7.5" transform="rotate(-10.6305 44.156 539.734)" stroke="#BCDEFF" stroke-width="2.5" shape-rendering="crispEdges"/>
</g>
<path d="M40.668 531.994C29.0286 504.784 42.5423 480.111 62.2162 472.789" stroke="#BCDEFF" stroke-width="1.5" stroke-linecap="round"/>
</g>
<g filter="url(#filter4_d_130_11)">
<circle cx="343" cy="268.193" r="7.5" stroke="#DCEEFF" stroke-width="6"/>
<g filter="url(#filter5_d_130_11)">
<circle cx="343" cy="268.193" r="7.5" stroke="#BCDEFF" stroke-width="2.5" shape-rendering="crispEdges"/>
</g>
<path d="M311.237 208.651C333.237 208.651 348.738 234.957 344.207 259.529" stroke="#BCDEFF" stroke-width="1.5" stroke-linecap="round"/>
</g>
<defs>
<filter id="filter0_d_130_11" x="330.087" y="868.19" width="26.8684" height="92.1855" filterUnits="userSpaceOnUse" color-interpolation-filters="sRGB">
<feFlood flood-opacity="0" result="BackgroundImageFix"/>
<feColorMatrix in="SourceAlpha" type="matrix" values="0 0 0 0 0 0 0 0 0 0 0 0 0 0 0 0 0 0 127 0" result="hardAlpha"/>
<feOffset dy="2"/>
<feGaussianBlur stdDeviation="1"/>
<feComposite in2="hardAlpha" operator="out"/>
<feColorMatrix type="matrix" values="0 0 0 0 0 0 0 0 0 0 0 0 0 0 0 0 0 0 0.25 0"/>
<feBlend mode="normal" in2="BackgroundImageFix" result="effect1_dropShadow_130_11"/>
<feBlend mode="normal" in="SourceGraphic" in2="effect1_dropShadow_130_11" result="shape"/>
</filter>
<filter id="filter1_d_130_11" x="331.706" y="933.125" width="25.5" height="25.5" filterUnits="userSpaceOnUse" color-interpolation-filters="sRGB">
<feFlood flood-opacity="0" result="BackgroundImageFix"/>
<feColorMatrix in="SourceAlpha" type="matrix" values="0 0 0 0 0 0 0 0 0 0 0 0 0 0 0 0 0 0 127 0" result="hardAlpha"/>
<feOffset/>
<feGaussianBlur stdDeviation="2"/>
<feComposite in2="hardAlpha" operator="out"/>
<feColorMatrix type="matrix" values="0 0 0 0 0 0 0 0 0 0 0 0 0 0 0 0 0 0 0.15 0"/>
<feBlend mode="normal" in2="BackgroundImageFix" result="effect1_dropShadow_130_11"/>
<feBlend mode="normal" in="SourceGraphic" in2="effect1_dropShadow_130_11" result="shape"/>
</filter>
<filter id="filter2_d_130_11" x="31.6541" y="472.039" width="33.3123" height="82.197" filterUnits="userSpaceOnUse" color-interpolation-filters="sRGB">
<feFlood flood-opacity="0" result="BackgroundImageFix"/>
<feColorMatrix in="SourceAlpha" type="matrix" values="0 0 0 0 0 0 0 0 0 0 0 0 0 0 0 0 0 0 127 0" result="hardAlpha"/>
<feOffset dy="2"/>
<feGaussianBlur stdDeviation="1"/>
<feComposite in2="hardAlpha" operator="out"/>
<feColorMatrix type="matrix" values="0 0 0 0 0 0 0 0 0 0 0 0 0 0 0 0 0 0 0.25 0"/>
<feBlend mode="normal" in2="BackgroundImageFix" result="effect1_dropShadow_130_11"/>
<feBlend mode="normal" in="SourceGraphic" in2="effect1_dropShadow_130_11" result="shape"/>
</filter>
<filter id="filter3_d_130_11" x="31.4043" y="526.983" width="25.5032" height="25.5032" filterUnits="userSpaceOnUse" color-interpolation-filters="sRGB">
<feFlood flood-opacity="0" result="BackgroundImageFix"/>
<feColorMatrix in="SourceAlpha" type="matrix" values="0 0 0 0 0 0 0 0 0 0 0 0 0 0 0 0 0 0 127 0" result="hardAlpha"/>
<feOffset/>
<feGaussianBlur stdDeviation="2"/>
<feComposite in2="hardAlpha" operator="out"/>
<feColorMatrix type="matrix" values="0 0 0 0 0 0 0 0 0 0 0 0 0 0 0 0 0 0 0.15 0"/>
<feBlend mode="normal" in2="BackgroundImageFix" result="effect1_dropShadow_130_11"/>
<feBlend mode="normal" in="SourceGraphic" in2="effect1_dropShadow_130_11" result="shape"/>
</filter>
<filter id="filter4_d_130_11" x="308.487" y="207.901" width="47.0122" height="74.7922" filterUnits="userSpaceOnUse" color-interpolation-filters="sRGB">
<feFlood flood-opacity="0" result="BackgroundImageFix"/>
<feColorMatrix in="SourceAlpha" type="matrix" values="0 0 0 0 0 0 0 0 0 0 0 0 0 0 0 0 0 0 127 0" result="hardAlpha"/>
<feOffset dy="2"/>
<feGaussianBlur stdDeviation="1"/>
<feComposite in2="hardAlpha" operator="out"/>
<feColorMatrix type="matrix" values="0 0 0 0 0 0 0 0 0 0 0 0 0 0 0 0 0 0 0.25 0"/>
<feBlend mode="normal" in2="BackgroundImageFix" result="effect1_dropShadow_130_11"/>
<feBlend mode="normal" in="SourceGraphic" in2="effect1_dropShadow_130_11" result="shape"/>
</filter>
<filter id="filter5_d_130_11" x="330.25" y="255.443" width="25.5" height="25.5" filterUnits="userSpaceOnUse" color-interpolation-filters="sRGB">
<feFlood flood-opacity="0" result="BackgroundImageFix"/>
<feColorMatrix in="SourceAlpha" type="matrix" values="0 0 0 0 0 0 0 0 0 0 0 0 0 0 0 0 0 0 127 0" result="hardAlpha"/>
<feOffset/>
<feGaussianBlur stdDeviation="2"/>
<feComposite in2="hardAlpha" operator="out"/>
<feColorMatrix type="matrix" values="0 0 0 0 0 0 0 0 0 0 0 0 0 0 0 0 0 0 0.15 0"/>
<feBlend mode="normal" in2="BackgroundImageFix" result="effect1_dropShadow_130_11"/>
<feBlend mode="normal" in="SourceGraphic" in2="effect1_dropShadow_130_11" result="shape"/>
</filter>
</defs>
</svg>
