<svg width="24" height="852" viewBox="0 0 24 852" fill="none" xmlns="http://www.w3.org/2000/svg">
<path d="M10.5 837L3.33975 852L20.6603 852L13.5 837L10.5 837ZM13.0607 0.939331C12.4749 0.353577 11.5252 0.353577 10.9394 0.939331L1.39344 10.4853C0.807648 11.071 0.807648 12.0208 1.39343 12.6066C1.97922 13.1924 2.92897 13.1924 3.51476 12.6066L12 4.12134L20.4853 12.6066C21.0711 13.1924 22.0209 13.1924 22.6066 12.6066C23.1924 12.0208 23.1924 11.071 22.6066 10.4853L13.0607 0.939331ZM13.5 838.5L13.5 2L10.5 2L10.5 838.5L13.5 838.5Z" fill="#263D4E" fill-opacity="0.7"/>
</svg>
