<svg width="26" height="26" viewBox="0 0 26 26" fill="none" xmlns="http://www.w3.org/2000/svg">
<path d="M19.5622 15.502C19.5622 15.9345 19.4336 16.3964 19.1741 16.8877C18.9154 17.3805 18.521 17.8487 17.9916 18.294C17.4607 18.7396 16.7933 19.0983 15.9878 19.3693C15.1818 19.6407 14.2751 19.7764 13.2653 19.7764C11.1197 19.7764 9.44362 19.1515 8.23932 17.8991C7.03501 16.6484 6.43305 14.9719 6.43305 12.8676C6.43305 11.4431 6.70804 10.184 7.2596 9.08924C7.81116 7.99603 8.60795 7.15044 9.65234 6.55166C10.6959 5.95407 11.9423 5.65527 13.393 5.65527C14.2922 5.65527 15.1172 5.78582 15.8671 6.0493C16.6179 6.31159 17.254 6.65126 17.7754 7.06711C18.2976 7.48257 18.6956 7.9258 18.9698 8.39641C19.2455 8.86703 19.3832 9.30629 19.3832 9.71341C19.3832 10.1281 19.2289 10.4816 18.919 10.7693C18.6091 11.0582 18.2341 11.2018 17.7936 11.2018C17.5043 11.2018 17.2655 11.1276 17.0742 10.9796C16.8833 10.8312 16.6695 10.5911 16.431 10.2598C16.0072 9.6158 15.5648 9.13249 15.1021 8.80989C14.6398 8.48728 14.0517 8.32618 13.3403 8.32618C12.3137 8.32618 11.4872 8.72695 10.859 9.5285C10.2309 10.3301 9.91781 11.4264 9.91781 12.8172C9.91781 13.4704 9.99796 14.0703 10.1591 14.6175C10.3206 15.1647 10.5535 15.6314 10.8586 16.0171C11.1521 16.3941 11.5319 16.695 11.9661 16.8944C12.3986 17.0944 12.8728 17.1936 13.3911 17.1936C14.0863 17.1936 14.6819 17.0341 15.1791 16.7107C15.6743 16.3881 16.1135 15.8961 16.4949 15.2346C16.7072 14.8445 16.9365 14.5394 17.1813 14.3184C17.4274 14.0977 17.7289 13.9874 18.0857 13.9874C18.5091 13.9874 18.8614 14.1477 19.1408 14.4707C19.4217 14.7921 19.5614 15.1362 19.5614 15.5016" fill="#263D4E"/>
<path d="M13.0006 0.216797C6.09616 0.216797 0.5 5.81177 0.5 12.717C0.5 19.6198 6.09497 25.2164 13.0006 25.2164C19.9038 25.2164 25.5 19.6214 25.5 12.717C25.5 5.81296 19.905 0.216797 13.0006 0.216797ZM13.0006 23.4887C7.05088 23.4887 2.2273 18.6659 2.2273 12.7154C2.2273 6.76529 7.05088 1.94211 13.0006 1.94211C18.9495 1.94211 23.7739 6.76569 23.7739 12.7154C23.7739 18.6643 18.9511 23.4887 13.0006 23.4887Z" fill="#263D4E"/>
</svg>
