<svg width="26" height="24" viewBox="0 0 26 24" fill="none" xmlns="http://www.w3.org/2000/svg">
<circle cx="12.9999" cy="4.33333" r="3.83333" stroke="#263D4E"/>
<path d="M9.74305 9.0648L10.1092 9.40529L10.1216 9.39197L10.133 9.37779L9.74305 9.0648ZM10.1089 8.66553L10.4004 8.25932L10.063 8.01714L9.763 8.30444L10.1089 8.66553ZM6.51474 14.8703L6.01912 14.8042L6.51474 14.8703ZM8.83616 13.557H9.33616V12.2096L8.4572 13.2309L8.83616 13.557ZM17.0901 13.8066L17.4128 13.4246L16.5901 12.7296V13.8066H17.0901ZM19.4831 14.7071L19.9754 14.6198V14.6198L19.4831 14.7071ZM16.25 9.13016L16.6036 8.77661L15.7563 7.92937L15.75 9.12753L16.25 9.13016ZM16.2499 9.15008L15.8519 9.45279L16.7421 10.6231L16.7499 9.15272L16.2499 9.15008ZM15.8176 8.66563L16.1634 8.30456L15.8635 8.01724L15.526 8.25941L15.8176 8.66563ZM10.133 9.37779C10.2325 9.25381 10.34 9.13649 10.4547 9.02661L9.763 8.30444C9.61689 8.44439 9.47994 8.59384 9.35313 8.75181L10.133 9.37779ZM7.01035 14.9364C7.04988 14.6399 7.19362 14.2084 7.42708 13.6853C7.65635 13.1716 7.95673 12.6031 8.28323 12.0433C8.94177 10.9142 9.67781 9.8692 10.1092 9.40529L9.37689 8.72431C8.87109 9.26825 8.09149 10.3872 7.41942 11.5394C7.08063 12.1203 6.76197 12.7219 6.5139 13.2777C6.27001 13.8242 6.07811 14.3618 6.01912 14.8042L7.01035 14.9364ZM8.4572 13.2309C7.92454 13.8497 7.33377 14.4664 6.91741 14.7665C6.81573 14.8398 6.74341 14.8801 6.69935 14.8984C6.64228 14.922 6.69017 14.8859 6.78855 14.9135C6.93474 14.9546 6.99128 15.071 7.00117 15.1057C7.00449 15.1173 6.99188 15.075 7.01035 14.9364L6.01912 14.8042C5.99369 14.9949 5.98738 15.1972 6.03951 15.3799C6.0982 15.5858 6.24605 15.7999 6.51834 15.8763C6.74284 15.9393 6.95163 15.8763 7.08258 15.822C7.22654 15.7623 7.36933 15.6735 7.50217 15.5777C8.02389 15.2016 8.68163 14.5031 9.21513 13.8832L8.4572 13.2309ZM9.33616 15.5154V13.557H8.33616V15.5154H9.33616ZM12.9631 19.1423C10.96 19.1423 9.33616 17.5185 9.33616 15.5154H8.33616C8.33616 18.0708 10.4077 20.1423 12.9631 20.1423V19.1423ZM16.5901 15.5154C16.5901 17.5185 14.9663 19.1423 12.9631 19.1423V20.1423C15.5186 20.1423 17.5901 18.0708 17.5901 15.5154H16.5901ZM16.5901 13.8066V15.5154H17.5901V13.8066H16.5901ZM16.7675 14.1885C17.3585 14.6878 18.0444 15.2127 18.5792 15.4747C18.7161 15.5417 18.8608 15.6006 19.0039 15.6345C19.1389 15.6664 19.327 15.6896 19.5178 15.6234C19.7419 15.5457 19.8937 15.3718 19.9596 15.1608C20.0166 14.9782 20.005 14.7864 19.9754 14.6198L18.9908 14.7945C19.008 14.8912 18.9934 14.9 19.0051 14.8627C19.0255 14.7971 19.0895 14.7135 19.1901 14.6786C19.2575 14.6553 19.2867 14.6738 19.2344 14.6614C19.1902 14.6509 19.1192 14.6257 19.0191 14.5766C18.6055 14.374 18.0015 13.9219 17.4128 13.4246L16.7675 14.1885ZM19.9754 14.6198C19.9022 14.2071 19.6682 13.6631 19.3895 13.1126C19.1031 12.5467 18.7422 11.922 18.3776 11.3303C18.0125 10.7378 17.64 10.1725 17.3282 9.72434C17.0278 9.29254 16.757 8.93006 16.6036 8.77661L15.8964 9.48372C15.9751 9.5624 16.1949 9.8464 16.5073 10.2954C16.8083 10.7281 17.1707 11.2779 17.5262 11.8549C17.8823 12.4327 18.2278 13.0318 18.4973 13.5642C18.7745 14.1118 18.9457 14.5403 18.9908 14.7945L19.9754 14.6198ZM15.75 9.12753L15.7499 9.14745L16.7499 9.15272L16.75 9.1328L15.75 9.12753ZM15.4717 9.02671C15.6093 9.15848 15.7365 9.30096 15.8519 9.45279L16.6479 8.84738C16.5007 8.6539 16.3386 8.47239 16.1634 8.30456L15.4717 9.02671ZM12.9633 10.0821C14.1362 10.0821 15.2231 9.70767 16.1091 9.07185L15.526 8.25941C14.8044 8.77732 13.9202 9.08214 12.9633 9.08214V10.0821ZM9.81731 9.07173C10.7033 9.70763 11.7903 10.0821 12.9633 10.0821V9.08214C12.0063 9.08214 11.1221 8.77729 10.4004 8.25932L9.81731 9.07173Z" fill="#263D4E"/>
<path fill-rule="evenodd" clip-rule="evenodd" d="M6.09475 11.9165C2.43362 13.0137 0 14.9575 0 17.1725C0 20.598 5.8203 23.3749 13 23.3749C20.1797 23.3749 26 20.598 26 17.1725C26 14.9577 23.5668 13.014 19.9062 11.9168C20.106 12.338 20.2884 12.7525 20.4434 13.1447C20.9121 13.312 21.3528 13.4942 21.7618 13.6893C24.0264 14.7698 25 16.0674 25 17.1725C25 18.2777 24.0264 19.5753 21.7618 20.6557C19.5712 21.7009 16.4746 22.3749 13 22.3749C9.52543 22.3749 6.42883 21.7009 4.23822 20.6557C1.97364 19.5753 1 18.2777 1 17.1725C1 16.0674 1.97364 14.7698 4.23822 13.6893C4.64337 13.496 5.07952 13.3154 5.54331 13.1494C5.69935 12.7584 5.88693 12.342 6.09475 11.9165Z" fill="#263D4E"/>
</svg>
