<svg width="30" height="23" viewBox="0 0 30 23" fill="none" xmlns="http://www.w3.org/2000/svg">
<path d="M15 11.2L0 3.64583V1.86667C0 1.34167 0.185547 0.899306 0.556641 0.539583C0.927734 0.179861 1.36719 0 1.875 0H28.125C28.6328 0 29.0723 0.179861 29.4434 0.539583C29.8145 0.899306 30 1.34167 30 1.86667V3.64583L15 11.2ZM14.0625 13.0667H15.9375L30 5.80417V20.5333C30 21.0389 29.8145 21.4764 29.4434 21.8458C29.0723 22.2153 28.6328 22.4 28.125 22.4H1.875C1.36719 22.4 0.927734 22.2153 0.556641 21.8458C0.185547 21.4764 0 21.0389 0 20.5333V5.80417L14.0625 13.0667Z" fill="#263D4E"/>
</svg>
