<svg width="30" height="30" viewBox="0 0 30 30" fill="none" xmlns="http://www.w3.org/2000/svg">
<path d="M15.0017 1.25612e-06C6.71322 -0.0033532 0 6.71228 0 15.0011C0 21.5558 4.19953 27.1275 10.048 29.1737C10.8357 29.3717 10.715 28.8115 10.715 28.4291V25.8293C6.16691 26.3627 5.98257 23.3504 5.67758 22.8472C5.06089 21.7939 3.60295 21.5256 4.03866 21.0224C5.07429 20.489 6.13004 21.1566 7.35337 22.9646C8.23819 24.2762 9.96425 24.0548 10.839 23.8368C11.0301 23.0485 11.4389 22.3441 12.002 21.7973C7.28969 20.952 5.32566 18.0738 5.32566 14.6523C5.32566 12.9918 5.87197 11.4655 6.94448 10.2345C6.26075 8.20501 7.00816 6.4674 7.1087 6.20911C9.05597 6.03468 11.0803 7.60456 11.2379 7.72868C12.3439 7.43013 13.6074 7.27247 15.0218 7.27247C16.4429 7.27247 17.7098 7.43684 18.8258 7.73874C19.2046 7.45026 21.0814 6.10176 22.8913 6.26613C22.9885 6.52443 23.7191 8.22178 23.0756 10.2244C24.1615 11.4588 24.7146 12.9985 24.7146 14.6623C24.7146 18.0906 22.7371 20.9721 18.0114 21.804C18.4162 22.2024 18.7376 22.6775 18.9568 23.2017C19.1761 23.7258 19.2888 24.2884 19.2883 24.8566V28.6303C19.3152 28.9322 19.2883 29.2308 19.7911 29.2308C25.7267 27.2282 30 21.6161 30 15.0045C30 6.71228 23.2834 1.25612e-06 15.0017 1.25612e-06Z" fill="#263D4E"/>
</svg>
