<svg width="197" height="268" viewBox="0 0 197 268" fill="none" xmlns="http://www.w3.org/2000/svg">
<g clip-path="url(#clip0_100_3)">
<g filter="url(#filter0_d_100_3)">
<path d="M146.77 156C144.529 156 142.31 155.558 140.24 154.7C139.577 154.431 138.839 154.409 138.161 154.636C137.482 154.864 136.908 155.326 136.54 155.94C135.476 157.731 134.027 159.264 132.3 160.429C130.572 161.594 128.607 162.361 126.548 162.675C124.488 162.99 122.384 162.844 120.387 162.249C118.391 161.653 116.551 160.622 115 159.23C114.706 158.966 114.361 158.764 113.987 158.637C113.612 158.51 113.216 158.459 112.822 158.489C112.428 158.519 112.043 158.628 111.692 158.811C111.342 158.993 111.031 159.245 110.78 159.55C109.272 161.318 107.377 162.714 105.242 163.632C103.107 164.55 100.79 164.964 98.4692 164.842C96.1487 164.72 93.8873 164.066 91.8603 162.93C89.8333 161.793 88.095 160.206 86.7801 158.29C86.3737 157.699 85.7689 157.273 85.0754 157.09C84.3819 156.906 83.6457 156.977 83.0001 157.29C80.5478 158.539 77.8439 159.215 75.0923 159.267C72.3407 159.319 69.6132 158.746 67.1154 157.591C64.6177 156.435 62.4148 154.728 60.673 152.597C58.9312 150.466 57.6958 147.968 57.0601 145.29C56.9204 144.683 56.5949 144.134 56.129 143.72C55.6631 143.306 55.0797 143.047 54.4601 142.98C49.5107 142.431 44.9376 140.076 41.6164 136.365C38.2952 132.655 36.4593 127.85 36.4601 122.87C36.4618 121.707 36.5655 120.545 36.7701 119.4C36.8474 118.958 36.8159 118.504 36.6782 118.077C36.5406 117.65 36.301 117.263 35.9801 116.95C34.2283 115.134 33.2377 112.716 33.2117 110.193C33.1857 107.67 34.1261 105.232 35.8401 103.38C36.27 102.94 36.5499 102.375 36.6397 101.766C36.7294 101.157 36.6246 100.536 36.3401 99.99C35.2632 97.9981 34.62 95.8008 34.4527 93.5426C34.2854 91.2844 34.5978 89.0164 35.3695 86.8875C36.1411 84.7587 37.3545 82.8172 38.9299 81.1906C40.5053 79.5641 42.407 78.2893 44.5101 77.45C44.9636 77.2743 45.3654 76.9869 45.6783 76.6146C45.9912 76.2423 46.2051 75.797 46.3001 75.32C47.6242 68.2155 51.3889 61.7968 56.9435 57.1735C62.498 52.5503 69.4932 50.0129 76.7201 50C78.1855 50.0016 79.6491 50.1052 81.1001 50.31C81.605 50.3859 82.121 50.3248 82.5942 50.1331C83.0675 49.9413 83.4805 49.626 83.7901 49.22C86.16 46.1009 89.2041 43.5576 92.695 41.7802C96.1859 40.0027 100.033 39.037 103.95 38.9553C107.866 38.8736 111.751 39.6779 115.313 41.3081C118.875 42.9384 122.022 45.3525 124.52 48.37C124.911 48.8344 125.435 49.169 126.02 49.3297C126.606 49.4904 127.227 49.4696 127.8 49.27C132.238 47.7348 137.075 47.8103 141.463 49.4832C145.851 51.1562 149.51 54.3199 151.8 58.42C151.98 58.42 152.16 58.42 152.35 58.42C154.036 58.4224 155.716 58.6341 157.35 59.05C158.107 59.2422 158.899 59.2518 159.661 59.0779C160.422 58.9041 161.131 58.5518 161.73 58.05L178.04 44.36C179.118 43.4556 179.993 42.3338 180.607 41.0682C181.222 39.8025 181.563 38.4214 181.607 37.0151C181.651 35.6088 181.398 34.209 180.865 32.9071C180.331 31.6052 179.529 30.4306 178.51 29.46C176.77 27.78 174.96 26.15 173.11 24.59C128.77 -12.61 61.6701 -6.74 24.4701 37.59C-12.7299 81.92 -6.8599 149.02 37.4701 186.22C78.9201 221 140.27 218.13 178.47 181.38C179.495 180.411 180.303 179.235 180.841 177.931C181.38 176.627 181.636 175.224 181.594 173.814C181.551 172.404 181.211 171.019 180.595 169.75C179.979 168.48 179.101 167.356 178.02 166.45L162.47 153.45C161.615 152.746 160.551 152.342 159.444 152.3C158.337 152.259 157.246 152.582 156.34 153.22C153.502 155.086 150.167 156.055 146.77 156V156Z" fill="#BCDEFF"/>
</g>
<path d="M180.84 100.21C180.836 97.4804 180.22 94.7865 179.036 92.3271C177.852 89.8676 176.131 87.7054 174 86C173.578 85.663 173.256 85.2185 173.066 84.7134C172.876 84.2083 172.825 83.6613 172.92 83.13C173.157 81.8772 173.278 80.6051 173.28 79.33C173.281 76.5806 172.741 73.8579 171.69 71.3174C170.638 68.7769 169.097 66.4684 167.153 64.5238C165.21 62.5792 162.902 61.0366 160.362 59.9842C157.822 58.9317 155.099 58.39 152.35 58.39C152.16 58.39 151.98 58.39 151.8 58.39C149.51 54.2899 145.851 51.1262 141.463 49.4532C137.075 47.7803 132.238 47.7048 127.8 49.24C127.226 49.4396 126.606 49.4604 126.02 49.2997C125.434 49.139 124.911 48.8044 124.52 48.34C122.023 45.3219 118.876 42.9071 115.314 41.276C111.753 39.6449 107.869 38.8396 103.952 38.9204C100.036 39.0012 96.188 39.9659 92.6967 41.7424C89.2054 43.519 86.1607 46.0615 83.79 49.18C83.4792 49.5878 83.0649 49.9049 82.5901 50.0984C82.1153 50.2918 81.5973 50.3545 81.09 50.28C79.6416 50.0849 78.1814 49.9913 76.72 50C69.4911 50.0078 62.4923 52.5416 56.9338 57.1633C51.3754 61.785 47.6068 68.2039 46.28 75.31C46.185 75.787 45.9711 76.2323 45.6582 76.6046C45.3453 76.9769 44.9435 77.2643 44.49 77.44C42.3842 78.2789 40.4799 79.5543 38.9026 81.1824C37.3253 82.8104 36.1108 84.754 35.3389 86.8853C34.5671 89.0167 34.2554 91.2873 34.4245 93.5478C34.5936 95.8082 35.2396 98.0072 36.32 100C36.6045 100.546 36.7093 101.167 36.6196 101.776C36.5298 102.385 36.2499 102.95 35.82 103.39C34.1172 105.246 33.1874 107.682 33.2209 110.201C33.2544 112.719 34.2485 115.13 36 116.94C36.3209 117.253 36.5605 117.64 36.6981 118.067C36.8358 118.494 36.8673 118.948 36.79 119.39C36.5854 120.535 36.4817 121.696 36.48 122.86C36.4792 127.84 38.3151 132.645 41.6363 136.355C44.9575 140.066 49.5306 142.421 54.48 142.97C55.0996 143.037 55.683 143.296 56.1489 143.71C56.6149 144.124 56.9403 144.673 57.08 145.28C57.7157 147.958 58.9511 150.456 60.6929 152.587C62.4347 154.718 64.6376 156.425 67.1353 157.581C69.6331 158.736 72.3606 159.309 75.1122 159.257C77.8638 159.205 80.5677 158.529 83.02 157.28C83.6656 156.967 84.4018 156.896 85.0953 157.08C85.7888 157.263 86.3936 157.689 86.8 158.28C88.1149 160.196 89.8532 161.783 91.8802 162.92C93.9072 164.056 96.1686 164.71 98.4891 164.832C100.81 164.954 103.127 164.54 105.262 163.622C107.397 162.704 109.292 161.308 110.8 159.54C111.051 159.235 111.361 158.983 111.712 158.801C112.063 158.619 112.447 158.509 112.842 158.479C113.236 158.449 113.632 158.5 114.007 158.627C114.381 158.754 114.726 158.956 115.02 159.22C116.566 160.611 118.4 161.643 120.392 162.242C122.383 162.841 124.483 162.992 126.539 162.685C128.596 162.377 130.559 161.618 132.288 160.462C134.017 159.307 135.469 157.783 136.54 156C136.907 155.386 137.482 154.924 138.161 154.696C138.839 154.469 139.577 154.491 140.24 154.76C142.572 155.725 145.088 156.162 147.609 156.038C150.129 155.914 152.591 155.234 154.817 154.045C157.043 152.857 158.978 151.19 160.483 149.164C161.988 147.138 163.025 144.804 163.52 142.33C163.619 141.822 163.851 141.349 164.192 140.959C164.532 140.569 164.97 140.276 165.46 140.11C167.754 139.311 169.851 138.031 171.611 136.355C173.37 134.68 174.751 132.647 175.661 130.395C176.571 128.142 176.989 125.721 176.887 123.293C176.785 120.866 176.166 118.488 175.07 116.32C174.805 115.791 174.712 115.193 174.803 114.608C174.894 114.024 175.166 113.483 175.58 113.06C178.96 109.638 180.85 105.019 180.84 100.21V100.21Z" fill="white"/>
<path d="M115 159.23C114.706 158.966 114.361 158.764 113.987 158.637C113.612 158.51 113.216 158.459 112.822 158.489C112.427 158.519 112.043 158.628 111.692 158.811C111.341 158.993 111.031 159.245 110.78 159.55C109.708 160.814 108.434 161.892 107.01 162.74V171.69C107.01 172.751 107.431 173.768 108.182 174.518C108.932 175.269 109.949 175.69 111.01 175.69C112.071 175.69 113.088 175.269 113.838 174.518C114.589 173.768 115.01 172.751 115.01 171.69V159.23H115Z" fill="#E7F2FF"/>
<path d="M124.44 162.85C124.06 162.85 123.7 162.85 123.33 162.85V165.44C123.33 166.501 123.751 167.518 124.502 168.268C125.252 169.019 126.269 169.44 127.33 169.44C128.391 169.44 129.408 169.019 130.158 168.268C130.909 167.518 131.33 166.501 131.33 165.44V161.1C129.221 162.263 126.848 162.865 124.44 162.85V162.85Z" fill="#E7F2FF"/>
<path d="M146.77 156C145.518 155.998 144.271 155.857 143.05 155.58V165.35C143.05 166.411 143.471 167.428 144.222 168.178C144.972 168.929 145.989 169.35 147.05 169.35C148.111 169.35 149.128 168.929 149.878 168.178C150.629 167.428 151.05 166.411 151.05 165.35V155.45C149.653 155.817 148.214 156.002 146.77 156V156Z" fill="#E7F2FF"/>
<path d="M83 157.28C80.823 158.395 78.4407 159.052 76 159.21V171.69C76 172.751 76.4214 173.768 77.1716 174.518C77.9217 175.269 78.9391 175.69 80 175.69C81.0609 175.69 82.0783 175.269 82.8284 174.518C83.5786 173.768 84 172.751 84 171.69V157C83.6534 157.037 83.3155 157.132 83 157.28V157.28Z" fill="#E7F2FF"/>
<path d="M106 75.14C106.043 75.0491 106.067 74.9505 106.07 74.8502C106.073 74.7498 106.056 74.6498 106.02 74.5562C105.983 74.4627 105.928 74.3775 105.858 74.306C105.787 74.2344 105.703 74.178 105.61 74.14C103.72 73.41 100.47 74.98 97.9 78C97.65 78.29 97.42 78.59 97.2 78.89C95.5686 81.1919 93.3184 82.9845 90.71 84.06C88.62 84.89 86.27 85.9 84.15 85.9C82.03 85.9 79.69 84.9 77.59 84.06C74.9844 82.9843 72.7375 81.1916 71.11 78.89C70.89 78.59 70.65 78.29 70.4 78C67.83 75 64.59 73.41 62.69 74.14C62.596 74.1765 62.5107 74.2323 62.4396 74.3039C62.3686 74.3755 62.3133 74.4612 62.2775 74.5555C62.2417 74.6497 62.2261 74.7505 62.2317 74.8512C62.2373 74.9519 62.2639 75.0503 62.31 75.14C63.7 78.83 61.42 80.14 64.17 83.35C65.5617 85.1111 67.4286 86.4367 69.55 87.17C70.0754 87.332 70.5431 87.6415 70.8977 88.0616C71.2522 88.4818 71.4786 88.9949 71.55 89.54C71.977 92.3821 73.1696 95.0543 75 97.27C75.7163 98.1028 76.0976 99.1719 76.07 100.27C76.07 100.38 76.07 100.49 76.07 100.59C76.07 106.37 79.67 112.49 84.07 112.49C88.47 112.49 92.07 106.37 92.07 100.59V100.27C92.0387 99.1731 92.4165 98.1037 93.13 97.27C94.9701 95.0558 96.1761 92.3846 96.62 89.54C96.6914 88.9949 96.9178 88.4818 97.2723 88.0616C97.6269 87.6415 98.0947 87.332 98.62 87.17C100.744 86.4368 102.614 85.1114 104.01 83.35C106.84 80.13 104.57 78.83 106 75.14Z" fill="#BCDEFF"/>
</g>
<g filter="url(#filter1_d_100_3)">
<path d="M30.8 252.24C29.504 252.24 28.288 252 27.152 251.52C26.032 251.024 25.048 250.344 24.2 249.48C23.368 248.6 22.712 247.576 22.232 246.408C21.768 245.24 21.536 243.976 21.536 242.616C21.536 241.272 21.768 240.024 22.232 238.872C22.712 237.704 23.368 236.688 24.2 235.824C25.048 234.944 26.032 234.256 27.152 233.76C28.272 233.264 29.488 233.016 30.8 233.016C32.032 233.016 33.088 233.176 33.968 233.496C34.864 233.816 35.76 234.344 36.656 235.08C36.784 235.176 36.88 235.28 36.944 235.392C37.024 235.488 37.072 235.592 37.088 235.704C37.12 235.8 37.136 235.92 37.136 236.064C37.136 236.368 37.024 236.624 36.8 236.832C36.592 237.024 36.336 237.136 36.032 237.168C35.728 237.184 35.432 237.08 35.144 236.856C34.552 236.344 33.936 235.952 33.296 235.68C32.672 235.408 31.84 235.272 30.8 235.272C29.856 235.272 28.968 235.464 28.136 235.848C27.304 236.232 26.568 236.76 25.928 237.432C25.304 238.104 24.816 238.888 24.464 239.784C24.112 240.664 23.936 241.608 23.936 242.616C23.936 243.64 24.112 244.6 24.464 245.496C24.816 246.376 25.304 247.152 25.928 247.824C26.568 248.496 27.304 249.024 28.136 249.408C28.968 249.776 29.856 249.96 30.8 249.96C31.616 249.96 32.384 249.824 33.104 249.552C33.84 249.264 34.544 248.872 35.216 248.376C35.504 248.168 35.784 248.08 36.056 248.112C36.344 248.128 36.584 248.24 36.776 248.448C36.968 248.64 37.064 248.912 37.064 249.264C37.064 249.424 37.032 249.584 36.968 249.744C36.904 249.888 36.808 250.024 36.68 250.152C35.816 250.84 34.888 251.36 33.896 251.712C32.92 252.064 31.888 252.24 30.8 252.24ZM44.7042 252C44.3522 252 44.0562 251.88 43.8162 251.64C43.5762 251.4 43.4562 251.104 43.4562 250.752V234.504C43.4562 234.136 43.5762 233.84 43.8162 233.616C44.0562 233.376 44.3522 233.256 44.7042 233.256C45.0722 233.256 45.3682 233.376 45.5922 233.616C45.8322 233.84 45.9522 234.136 45.9522 234.504V241.392H57.0883V234.504C57.0883 234.136 57.2083 233.84 57.4483 233.616C57.6883 233.376 57.9843 233.256 58.3363 233.256C58.7043 233.256 59.0003 233.376 59.2243 233.616C59.4483 233.84 59.5603 234.136 59.5603 234.504V250.752C59.5603 251.104 59.4483 251.4 59.2243 251.64C59.0003 251.88 58.7043 252 58.3363 252C57.9843 252 57.6883 251.88 57.4483 251.64C57.2083 251.4 57.0883 251.104 57.0883 250.752V243.6H45.9522V250.752C45.9522 251.104 45.8322 251.4 45.5922 251.64C45.3682 251.88 45.0722 252 44.7042 252ZM68.0105 252C67.6585 252 67.3625 251.88 67.1225 251.64C66.8825 251.4 66.7625 251.104 66.7625 250.752V234.504C66.7625 234.136 66.8825 233.84 67.1225 233.616C67.3625 233.376 67.6585 233.256 68.0105 233.256C68.3785 233.256 68.6745 233.376 68.8985 233.616C69.1385 233.84 69.2585 234.136 69.2585 234.504V250.752C69.2585 251.104 69.1385 251.4 68.8985 251.64C68.6745 251.88 68.3785 252 68.0105 252ZM77.6756 252C77.3236 252 77.0276 251.88 76.7876 251.64C76.5636 251.4 76.4516 251.104 76.4516 250.752V234.504C76.4516 234.136 76.5636 233.84 76.7876 233.616C77.0276 233.376 77.3236 233.256 77.6756 233.256C78.0596 233.256 78.3796 233.408 78.6356 233.712L89.0996 247.632V234.504C89.0996 234.136 89.2196 233.84 89.4596 233.616C89.6996 233.376 89.9956 233.256 90.3476 233.256C90.7156 233.256 91.0116 233.376 91.2356 233.616C91.4596 233.84 91.5716 234.136 91.5716 234.504V250.752C91.5716 251.104 91.4596 251.4 91.2356 251.64C91.0116 251.88 90.7156 252 90.3476 252C90.1876 252 90.0116 251.968 89.8196 251.904C89.6436 251.824 89.4996 251.712 89.3876 251.568L78.9236 237.648V250.752C78.9236 251.104 78.8036 251.4 78.5636 251.64C78.3396 251.88 78.0436 252 77.6756 252ZM107.173 252.24C105.877 252.24 104.661 252 103.525 251.52C102.405 251.024 101.421 250.344 100.573 249.48C99.7414 248.6 99.0854 247.576 98.6054 246.408C98.1414 245.24 97.9094 243.976 97.9094 242.616C97.9094 241.272 98.1414 240.024 98.6054 238.872C99.0854 237.704 99.7414 236.688 100.573 235.824C101.421 234.944 102.405 234.256 103.525 233.76C104.645 233.264 105.861 233.016 107.173 233.016C108.405 233.016 109.461 233.176 110.341 233.496C111.237 233.816 112.133 234.344 113.029 235.08C113.157 235.176 113.253 235.28 113.317 235.392C113.397 235.488 113.445 235.592 113.461 235.704C113.493 235.8 113.509 235.92 113.509 236.064C113.509 236.368 113.397 236.624 113.173 236.832C112.965 237.04 112.701 237.152 112.381 237.168C112.077 237.184 111.789 237.08 111.517 236.856C110.925 236.344 110.309 235.952 109.669 235.68C109.045 235.408 108.213 235.272 107.173 235.272C106.229 235.272 105.341 235.464 104.509 235.848C103.677 236.232 102.941 236.76 102.301 237.432C101.677 238.104 101.189 238.888 100.837 239.784C100.485 240.664 100.309 241.608 100.309 242.616C100.309 243.64 100.485 244.6 100.837 245.496C101.189 246.376 101.677 247.152 102.301 247.824C102.941 248.496 103.677 249.024 104.509 249.408C105.341 249.776 106.229 249.96 107.173 249.96C107.989 249.96 108.757 249.824 109.477 249.552C110.213 249.264 110.917 248.872 111.589 248.376C111.877 248.168 112.157 248.08 112.429 248.112C112.717 248.128 112.957 248.24 113.149 248.448C113.341 248.64 113.437 248.912 113.437 249.264C113.437 249.424 113.405 249.584 113.341 249.744C113.293 249.888 113.197 250.024 113.053 250.152C112.205 250.856 111.285 251.384 110.293 251.736C109.301 252.072 108.261 252.24 107.173 252.24ZM113.437 249.264L111.037 248.784V244.488H107.725C107.373 244.488 107.077 244.384 106.837 244.176C106.597 243.968 106.477 243.704 106.477 243.384C106.477 243.064 106.597 242.8 106.837 242.592C107.077 242.384 107.373 242.28 107.725 242.28H112.213C112.581 242.28 112.877 242.4 113.101 242.64C113.325 242.864 113.437 243.16 113.437 243.528V249.264ZM134.877 252C134.541 252 134.253 251.88 134.013 251.64C133.773 251.4 133.653 251.104 133.653 250.752V245.16L127.245 235.2C127.037 234.864 126.957 234.552 127.005 234.264C127.053 233.96 127.189 233.72 127.413 233.544C127.653 233.352 127.925 233.256 128.229 233.256C128.501 233.256 128.717 233.32 128.877 233.448C129.037 233.56 129.189 233.728 129.333 233.952L135.429 243.624H134.469L140.661 233.856C140.789 233.664 140.941 233.52 141.117 233.424C141.293 233.312 141.509 233.256 141.765 233.256C142.053 233.256 142.293 233.36 142.485 233.568C142.677 233.76 142.789 234.008 142.821 234.312C142.853 234.6 142.773 234.896 142.581 235.2L136.125 245.16V250.752C136.125 251.104 136.005 251.4 135.765 251.64C135.525 251.88 135.229 252 134.877 252ZM148.987 252C148.635 252 148.339 251.88 148.099 251.64C147.859 251.4 147.739 251.104 147.739 250.752V234.504C147.739 234.136 147.859 233.84 148.099 233.616C148.339 233.376 148.635 233.256 148.987 233.256H159.835C160.203 233.256 160.499 233.368 160.723 233.592C160.947 233.8 161.059 234.08 161.059 234.432C161.059 234.768 160.947 235.04 160.723 235.248C160.499 235.456 160.203 235.56 159.835 235.56H150.235V241.392H157.123C157.491 241.392 157.787 241.504 158.011 241.728C158.235 241.936 158.347 242.208 158.347 242.544C158.347 242.88 158.235 243.16 158.011 243.384C157.787 243.592 157.491 243.696 157.123 243.696H150.235V249.696H159.835C160.203 249.696 160.499 249.8 160.723 250.008C160.947 250.216 161.059 250.488 161.059 250.824C161.059 251.176 160.947 251.464 160.723 251.688C160.499 251.896 160.203 252 159.835 252H148.987ZM168.192 252C167.84 252 167.544 251.88 167.304 251.64C167.064 251.4 166.944 251.104 166.944 250.752V234.504C166.944 234.136 167.064 233.84 167.304 233.616C167.544 233.376 167.84 233.256 168.192 233.256H179.04C179.408 233.256 179.704 233.368 179.928 233.592C180.152 233.8 180.264 234.08 180.264 234.432C180.264 234.768 180.152 235.04 179.928 235.248C179.704 235.456 179.408 235.56 179.04 235.56H169.44V241.392H176.328C176.696 241.392 176.992 241.504 177.216 241.728C177.44 241.936 177.552 242.208 177.552 242.544C177.552 242.88 177.44 243.16 177.216 243.384C176.992 243.592 176.696 243.696 176.328 243.696H169.44V249.696H179.04C179.408 249.696 179.704 249.8 179.928 250.008C180.152 250.216 180.264 250.488 180.264 250.824C180.264 251.176 180.152 251.464 179.928 251.688C179.704 251.896 179.408 252 179.04 252H168.192Z" fill="white"/>
<path d="M27.152 251.52L26.9495 251.977L26.9574 251.981L27.152 251.52ZM24.2 249.48L23.8366 249.824L23.8432 249.83L24.2 249.48ZM22.232 246.408L21.7673 246.593L21.7695 246.598L22.232 246.408ZM22.232 238.872L21.7695 238.682L21.7682 238.685L22.232 238.872ZM24.2 235.824L23.84 235.477L23.8398 235.477L24.2 235.824ZM27.152 233.76L26.9495 233.303L26.9495 233.303L27.152 233.76ZM33.968 233.496L33.7971 233.966L33.7998 233.967L33.968 233.496ZM36.656 235.08L36.3386 235.466L36.3472 235.473L36.356 235.48L36.656 235.08ZM36.944 235.392L36.5099 235.64L36.5317 235.678L36.5599 235.712L36.944 235.392ZM37.088 235.704L36.593 235.775L36.5994 235.819L36.6137 235.862L37.088 235.704ZM36.8 236.832L37.1391 237.199L37.1402 237.198L36.8 236.832ZM36.032 237.168L36.0583 237.667L36.0713 237.667L36.0843 237.665L36.032 237.168ZM35.144 236.856L34.8169 237.234L34.8268 237.243L34.837 237.251L35.144 236.856ZM33.296 235.68L33.0962 236.138L33.1004 236.14L33.296 235.68ZM25.928 237.432L25.5659 237.087L25.5616 237.092L25.928 237.432ZM24.464 239.784L24.9282 239.97L24.9294 239.967L24.464 239.784ZM24.464 245.496L23.9986 245.679L23.9998 245.682L24.464 245.496ZM25.928 247.824L25.5616 248.164L25.5659 248.169L25.928 247.824ZM28.136 249.408L27.9264 249.862L27.9337 249.865L28.136 249.408ZM33.104 249.552L33.2807 250.02L33.2862 250.018L33.104 249.552ZM35.216 248.376L34.9232 247.971L34.9191 247.974L35.216 248.376ZM36.056 248.112L35.9976 248.609L36.0129 248.61L36.0283 248.611L36.056 248.112ZM36.776 248.448L36.4086 248.787L36.4154 248.794L36.4224 248.802L36.776 248.448ZM36.968 249.744L37.4249 249.947L37.4287 249.938L37.4322 249.93L36.968 249.744ZM36.68 250.152L36.9915 250.543L37.0136 250.526L37.0336 250.506L36.68 250.152ZM33.896 251.712L33.7288 251.241L33.7264 251.242L33.896 251.712ZM30.8 251.74C29.5674 251.74 28.4179 251.512 27.3466 251.059L26.9574 251.981C28.1581 252.488 29.4406 252.74 30.8 252.74V251.74ZM27.3545 251.063C26.2915 250.592 25.3601 249.948 24.5568 249.13L23.8432 249.83C24.7359 250.74 25.7725 251.456 26.9495 251.977L27.3545 251.063ZM24.5633 249.136C23.7753 248.303 23.1521 247.332 22.6945 246.218L21.7695 246.598C22.2719 247.82 22.9607 248.897 23.8367 249.824L24.5633 249.136ZM22.6967 246.223C22.2579 245.119 22.036 243.918 22.036 242.616H21.036C21.036 244.034 21.2781 245.361 21.7673 246.593L22.6967 246.223ZM22.036 242.616C22.036 241.331 22.2576 240.147 22.6958 239.059L21.7682 238.685C21.2784 239.901 21.036 241.213 21.036 242.616H22.036ZM22.6945 239.062C23.1518 237.949 23.7741 236.987 24.5602 236.171L23.8398 235.477C22.9619 236.389 22.2722 237.459 21.7695 238.682L22.6945 239.062ZM24.56 236.171C25.363 235.338 26.2935 234.687 27.3545 234.217L26.9495 233.303C25.7705 233.825 24.733 234.55 23.84 235.477L24.56 236.171ZM27.3545 234.217C28.4063 233.751 29.5527 233.516 30.8 233.516V232.516C29.4233 232.516 28.1377 232.777 26.9495 233.303L27.3545 234.217ZM30.8 233.516C31.9911 233.516 32.9861 233.671 33.7971 233.966L34.1389 233.026C33.1899 232.681 32.0729 232.516 30.8 232.516V233.516ZM33.7998 233.967C34.6312 234.264 35.4777 234.759 36.3386 235.466L36.9734 234.694C36.0423 233.929 35.0968 233.368 34.1362 233.025L33.7998 233.967ZM36.356 235.48C36.4421 235.545 36.4868 235.6 36.5099 235.64L37.3781 235.144C37.2732 234.96 37.1259 234.807 36.956 234.68L36.356 235.48ZM36.5599 235.712C36.5869 235.745 36.5915 235.764 36.593 235.775L37.583 235.633C37.5525 235.42 37.4611 235.231 37.3281 235.072L36.5599 235.712ZM36.6137 235.862C36.6231 235.891 36.636 235.953 36.636 236.064H37.636C37.636 235.887 37.6169 235.709 37.5623 235.546L36.6137 235.862ZM36.636 236.064C36.636 236.228 36.5825 236.352 36.4598 236.466L37.1402 237.198C37.4655 236.896 37.636 236.508 37.636 236.064H36.636ZM36.4609 236.465C36.3384 236.578 36.1856 236.649 35.9797 236.671L36.0843 237.665C36.4864 237.623 36.8456 237.47 37.1391 237.199L36.4609 236.465ZM36.0057 236.669C35.8446 236.677 35.6638 236.627 35.451 236.461L34.837 237.251C35.2002 237.533 35.6114 237.691 36.0583 237.667L36.0057 236.669ZM35.4711 236.478C34.8446 235.936 34.185 235.515 33.4916 235.22L33.1004 236.14C33.687 236.389 34.2594 236.752 34.8169 237.234L35.4711 236.478ZM33.4958 235.222C32.7845 234.912 31.876 234.772 30.8 234.772V235.772C31.804 235.772 32.5596 235.904 33.0962 236.138L33.4958 235.222ZM30.8 234.772C29.7859 234.772 28.8262 234.979 27.9265 235.394L28.3455 236.302C29.1098 235.949 29.9261 235.772 30.8 235.772V234.772ZM27.9265 235.394C27.0365 235.805 26.2489 236.37 25.5659 237.087L26.2901 237.777C26.8871 237.15 27.5715 236.659 28.3455 236.302L27.9265 235.394ZM25.5616 237.092C24.893 237.812 24.3723 238.65 23.9986 239.601L24.9294 239.967C25.2597 239.126 25.715 238.396 26.2944 237.772L25.5616 237.092ZM23.9998 239.598C23.6227 240.541 23.436 241.548 23.436 242.616H24.436C24.436 241.668 24.6013 240.787 24.9282 239.97L23.9998 239.598ZM23.436 242.616C23.436 243.699 23.6223 244.721 23.9986 245.679L24.9294 245.313C24.6017 244.479 24.436 243.581 24.436 242.616H23.436ZM23.9998 245.682C24.3738 246.617 24.8944 247.446 25.5616 248.164L26.2944 247.484C25.7136 246.858 25.2582 246.135 24.9282 245.31L23.9998 245.682ZM25.5659 248.169C26.2489 248.886 27.0365 249.451 27.9265 249.862L28.3455 248.954C27.5715 248.597 26.8871 248.106 26.2901 247.479L25.5659 248.169ZM27.9337 249.865C28.8319 250.263 29.789 250.46 30.8 250.46V249.46C29.923 249.46 29.1041 249.289 28.3383 248.951L27.9337 249.865ZM30.8 250.46C31.6727 250.46 32.5009 250.314 33.2807 250.02L32.9273 249.084C32.2671 249.334 31.5593 249.46 30.8 249.46V250.46ZM33.2862 250.018C34.0653 249.713 34.8076 249.299 35.5129 248.778L34.9191 247.974C34.2804 248.445 33.6147 248.815 32.9218 249.086L33.2862 250.018ZM35.5087 248.781C35.7263 248.624 35.8834 248.595 35.9976 248.609L36.1144 247.615C35.6846 247.565 35.2817 247.712 34.9233 247.971L35.5087 248.781ZM36.0283 248.611C36.1893 248.62 36.3066 248.677 36.4086 248.787L37.1434 248.109C36.8614 247.803 36.4987 247.636 36.0837 247.613L36.0283 248.611ZM36.4224 248.802C36.4952 248.874 36.564 249.004 36.564 249.264H37.564C37.564 248.82 37.4408 248.406 37.1296 248.094L36.4224 248.802ZM36.564 249.264C36.564 249.356 36.546 249.453 36.5038 249.558L37.4322 249.93C37.518 249.715 37.564 249.492 37.564 249.264H36.564ZM36.5111 249.541C36.4754 249.621 36.4174 249.707 36.3264 249.798L37.0336 250.506C37.1986 250.341 37.3326 250.155 37.4249 249.947L36.5111 249.541ZM36.3685 249.761C35.5457 250.416 34.6661 250.908 33.7288 251.241L34.0632 252.183C35.1099 251.812 36.0863 251.264 36.9915 250.543L36.3685 249.761ZM33.7264 251.242C32.8074 251.573 31.833 251.74 30.8 251.74V252.74C31.943 252.74 33.0326 252.555 34.0656 252.182L33.7264 251.242ZM43.8162 251.64L43.4627 251.994L43.8162 251.64ZM43.8162 233.616L44.1574 233.982L44.1637 233.976L44.1698 233.97L43.8162 233.616ZM45.5923 233.616L45.2267 233.957L45.2385 233.97L45.2511 233.982L45.5923 233.616ZM45.9522 241.392H45.4522V241.892H45.9522V241.392ZM57.0882 241.392V241.892H57.5882V241.392H57.0882ZM57.4482 233.616L57.7894 233.982L57.7957 233.976L57.8018 233.97L57.4482 233.616ZM59.2243 233.616L58.8587 233.957L58.8646 233.963L58.8707 233.97L59.2243 233.616ZM57.0882 243.6H57.5882V243.1H57.0882V243.6ZM45.9522 243.6V243.1H45.4522V243.6H45.9522ZM45.5923 251.64L45.2387 251.286L45.2326 251.293L45.2267 251.299L45.5923 251.64ZM44.7043 251.5C44.4794 251.5 44.3122 251.429 44.1698 251.286L43.4627 251.994C43.8003 252.331 44.2251 252.5 44.7043 252.5V251.5ZM44.1698 251.286C44.0274 251.144 43.9562 250.977 43.9562 250.752H42.9562C42.9562 251.231 43.1251 251.656 43.4627 251.994L44.1698 251.286ZM43.9562 250.752V234.504H42.9562V250.752H43.9562ZM43.9562 234.504C43.9562 234.256 44.0315 234.099 44.1574 233.982L43.4751 233.25C43.121 233.581 42.9562 234.016 42.9562 234.504H43.9562ZM44.1698 233.97C44.3122 233.827 44.4794 233.756 44.7043 233.756V232.756C44.2251 232.756 43.8003 232.925 43.4627 233.262L44.1698 233.97ZM44.7043 233.756C44.9522 233.756 45.1092 233.831 45.2267 233.957L45.9578 233.275C45.6273 232.921 45.1923 232.756 44.7043 232.756V233.756ZM45.2511 233.982C45.377 234.099 45.4522 234.256 45.4522 234.504H46.4522C46.4522 234.016 46.2875 233.581 45.9334 233.25L45.2511 233.982ZM45.4522 234.504V241.392H46.4522V234.504H45.4522ZM45.9522 241.892H57.0882V240.892H45.9522V241.892ZM57.5882 241.392V234.504H56.5882V241.392H57.5882ZM57.5882 234.504C57.5882 234.256 57.6635 234.099 57.7894 233.982L57.1071 233.25C56.753 233.581 56.5882 234.016 56.5882 234.504H57.5882ZM57.8018 233.97C57.9442 233.827 58.1114 233.756 58.3363 233.756V232.756C57.8571 232.756 57.4323 232.925 57.0947 233.262L57.8018 233.97ZM58.3363 233.756C58.5842 233.756 58.7412 233.831 58.8587 233.957L59.5898 233.275C59.2593 232.921 58.8243 232.756 58.3363 232.756V233.756ZM58.8707 233.97C58.9857 234.085 59.0602 234.245 59.0602 234.504H60.0602C60.0602 234.027 59.9108 233.595 59.5778 233.262L58.8707 233.97ZM59.0602 234.504V250.752H60.0602V234.504H59.0602ZM59.0602 250.752C59.0602 250.987 58.9897 251.158 58.8587 251.299L59.5898 251.981C59.9068 251.642 60.0602 251.221 60.0602 250.752H59.0602ZM58.8587 251.299C58.7412 251.425 58.5842 251.5 58.3363 251.5V252.5C58.8243 252.5 59.2593 252.335 59.5898 251.981L58.8587 251.299ZM58.3363 251.5C58.1114 251.5 57.9442 251.429 57.8018 251.286L57.0947 251.994C57.4323 252.331 57.8571 252.5 58.3363 252.5V251.5ZM57.8018 251.286C57.6594 251.144 57.5882 250.977 57.5882 250.752H56.5882C56.5882 251.231 56.7571 251.656 57.0947 251.994L57.8018 251.286ZM57.5882 250.752V243.6H56.5882V250.752H57.5882ZM57.0882 243.1H45.9522V244.1H57.0882V243.1ZM45.4522 243.6V250.752H46.4522V243.6H45.4522ZM45.4522 250.752C45.4522 250.977 45.3811 251.144 45.2387 251.286L45.9458 251.994C46.2834 251.656 46.4522 251.231 46.4522 250.752H45.4522ZM45.2267 251.299C45.1092 251.425 44.9522 251.5 44.7043 251.5V252.5C45.1923 252.5 45.6273 252.335 45.9578 251.981L45.2267 251.299ZM67.1225 251.64L66.7689 251.994L67.1225 251.64ZM67.1225 233.616L67.4637 233.982L67.47 233.976L67.4761 233.97L67.1225 233.616ZM68.8985 233.616L68.533 233.957L68.5447 233.97L68.5573 233.982L68.8985 233.616ZM68.8985 251.64L68.5449 251.286L68.5389 251.293L68.533 251.299L68.8985 251.64ZM68.0105 251.5C67.7856 251.5 67.6185 251.429 67.4761 251.286L66.7689 251.994C67.1065 252.331 67.5314 252.5 68.0105 252.5V251.5ZM67.4761 251.286C67.3336 251.144 67.2625 250.977 67.2625 250.752H66.2625C66.2625 251.231 66.4314 251.656 66.7689 251.994L67.4761 251.286ZM67.2625 250.752V234.504H66.2625V250.752H67.2625ZM67.2625 234.504C67.2625 234.256 67.3378 234.099 67.4637 233.982L66.7813 233.25C66.4272 233.581 66.2625 234.016 66.2625 234.504H67.2625ZM67.4761 233.97C67.6185 233.827 67.7856 233.756 68.0105 233.756V232.756C67.5314 232.756 67.1065 232.925 66.7689 233.262L67.4761 233.97ZM68.0105 233.756C68.2584 233.756 68.4155 233.831 68.533 233.957L69.264 233.275C68.9335 232.921 68.4986 232.756 68.0105 232.756V233.756ZM68.5573 233.982C68.6832 234.099 68.7585 234.256 68.7585 234.504H69.7585C69.7585 234.016 69.5938 233.581 69.2397 233.25L68.5573 233.982ZM68.7585 234.504V250.752H69.7585V234.504H68.7585ZM68.7585 250.752C68.7585 250.977 68.6874 251.144 68.5449 251.286L69.2521 251.994C69.5896 251.656 69.7585 251.231 69.7585 250.752H68.7585ZM68.533 251.299C68.4155 251.425 68.2584 251.5 68.0105 251.5V252.5C68.4986 252.5 68.9335 252.335 69.264 251.981L68.533 251.299ZM76.7876 251.64L76.422 251.981L76.4279 251.987L76.434 251.994L76.7876 251.64ZM76.7876 233.616L76.434 233.262L76.7876 233.616ZM78.6356 233.712L79.0352 233.412L79.0269 233.401L79.018 233.39L78.6356 233.712ZM89.0996 247.632L88.6999 247.932L89.5996 249.129V247.632H89.0996ZM89.4596 233.616L89.8007 233.982L89.807 233.976L89.8131 233.97L89.4596 233.616ZM91.2356 233.616L90.87 233.957L90.8759 233.963L90.882 233.97L91.2356 233.616ZM89.8196 251.904L89.6127 252.359L89.6366 252.37L89.6615 252.378L89.8196 251.904ZM89.3876 251.568L88.9878 251.868L88.9929 251.875L89.3876 251.568ZM78.9236 237.648L79.3232 237.348L78.4236 236.151V237.648H78.9236ZM78.5636 251.64L78.21 251.286L78.2039 251.293L78.198 251.299L78.5636 251.64ZM77.6756 251.5C77.4507 251.5 77.2835 251.429 77.1411 251.286L76.434 251.994C76.7716 252.331 77.1964 252.5 77.6756 252.5V251.5ZM77.1531 251.299C77.0221 251.158 76.9516 250.987 76.9516 250.752H75.9516C75.9516 251.221 76.105 251.642 76.422 251.981L77.1531 251.299ZM76.9516 250.752V234.504H75.9516V250.752H76.9516ZM76.9516 234.504C76.9516 234.245 77.0261 234.085 77.1411 233.97L76.434 233.262C76.101 233.595 75.9516 234.027 75.9516 234.504H76.9516ZM77.1411 233.97C77.2835 233.827 77.4507 233.756 77.6756 233.756V232.756C77.1964 232.756 76.7716 232.925 76.434 233.262L77.1411 233.97ZM77.6756 233.756C77.9062 233.756 78.0883 233.838 78.2531 234.034L79.018 233.39C78.6708 232.978 78.2129 232.756 77.6756 232.756V233.756ZM78.2359 234.012L88.6999 247.932L89.4992 247.332L79.0352 233.412L78.2359 234.012ZM89.5996 247.632V234.504H88.5996V247.632H89.5996ZM89.5996 234.504C89.5996 234.256 89.6748 234.099 89.8007 233.982L89.1184 233.25C88.7643 233.581 88.5996 234.016 88.5996 234.504H89.5996ZM89.8131 233.97C89.9555 233.827 90.1227 233.756 90.3476 233.756V232.756C89.8684 232.756 89.4436 232.925 89.106 233.262L89.8131 233.97ZM90.3476 233.756C90.5955 233.756 90.7525 233.831 90.87 233.957L91.6011 233.275C91.2706 232.921 90.8356 232.756 90.3476 232.756V233.756ZM90.882 233.97C90.997 234.085 91.0716 234.245 91.0716 234.504H92.0716C92.0716 234.027 91.9221 233.595 91.5891 233.262L90.882 233.97ZM91.0716 234.504V250.752H92.0716V234.504H91.0716ZM91.0716 250.752C91.0716 250.987 91.001 251.158 90.87 251.299L91.6011 251.981C91.9181 251.642 92.0716 251.221 92.0716 250.752H91.0716ZM90.87 251.299C90.7525 251.425 90.5955 251.5 90.3476 251.5V252.5C90.8356 252.5 91.2706 252.335 91.6011 251.981L90.87 251.299ZM90.3476 251.5C90.2534 251.5 90.1316 251.481 89.9777 251.43L89.6615 252.378C89.8916 252.455 90.1218 252.5 90.3476 252.5V251.5ZM90.0265 251.449C89.9196 251.4 89.8416 251.337 89.7822 251.261L88.9929 251.875C89.1575 252.087 89.3675 252.248 89.6127 252.359L90.0265 251.449ZM89.7872 251.268L79.3232 237.348L78.5239 237.948L88.9879 251.868L89.7872 251.268ZM78.4236 237.648V250.752H79.4236V237.648H78.4236ZM78.4236 250.752C78.4236 250.977 78.3524 251.144 78.21 251.286L78.9171 251.994C79.2547 251.656 79.4236 251.231 79.4236 250.752H78.4236ZM78.198 251.299C78.0805 251.425 77.9235 251.5 77.6756 251.5V252.5C78.1636 252.5 78.5986 252.335 78.9291 251.981L78.198 251.299ZM103.525 251.52L103.323 251.977L103.331 251.981L103.525 251.52ZM100.573 249.48L100.21 249.824L100.217 249.83L100.573 249.48ZM98.6054 246.408L98.1407 246.593L98.143 246.598L98.6054 246.408ZM98.6054 238.872L98.143 238.682L98.1416 238.685L98.6054 238.872ZM100.573 235.824L100.213 235.477L100.213 235.477L100.573 235.824ZM103.525 233.76L103.323 233.303V233.303L103.525 233.76ZM110.341 233.496L110.171 233.966L110.173 233.967L110.341 233.496ZM113.029 235.08L112.712 235.466L112.721 235.473L112.729 235.48L113.029 235.08ZM113.317 235.392L112.883 235.64L112.905 235.678L112.933 235.712L113.317 235.392ZM113.461 235.704L112.966 235.775L112.973 235.819L112.987 235.862L113.461 235.704ZM113.173 236.832L112.833 236.466L112.826 236.472L112.82 236.478L113.173 236.832ZM112.381 237.168L112.356 236.669L112.355 236.669L112.381 237.168ZM111.517 236.856L111.19 237.234L111.2 237.242L111.517 236.856ZM109.669 235.68L109.47 236.138L109.474 236.14L109.669 235.68ZM102.301 237.432L101.939 237.087L101.935 237.092L102.301 237.432ZM100.837 239.784L101.302 239.97L101.303 239.967L100.837 239.784ZM100.837 245.496L100.372 245.679L100.373 245.682L100.837 245.496ZM102.301 247.824L101.935 248.164L101.939 248.169L102.301 247.824ZM104.509 249.408L104.3 249.862L104.307 249.865L104.509 249.408ZM109.477 249.552L109.654 250.02L109.66 250.018L109.477 249.552ZM111.589 248.376L111.297 247.971L111.293 247.974L111.589 248.376ZM112.429 248.112L112.371 248.609L112.386 248.61L112.402 248.611L112.429 248.112ZM113.149 248.448L112.782 248.787L112.789 248.794L112.796 248.802L113.149 248.448ZM113.341 249.744L112.877 249.558L112.872 249.572L112.867 249.586L113.341 249.744ZM113.053 250.152L113.373 250.537L113.379 250.531L113.386 250.526L113.053 250.152ZM110.293 251.736L110.454 252.21L110.461 252.207L110.293 251.736ZM113.437 249.264L113.339 249.754L113.937 249.874V249.264H113.437ZM111.037 248.784H110.537V249.194L110.939 249.274L111.037 248.784ZM111.037 244.488H111.537V243.988H111.037V244.488ZM106.837 244.176L106.51 244.554L106.837 244.176ZM106.837 242.592L106.51 242.214L106.837 242.592ZM113.101 242.64L112.736 242.981L112.742 242.987L112.748 242.994L113.101 242.64ZM107.173 251.74C105.941 251.74 104.791 251.512 103.72 251.059L103.331 251.981C104.532 252.488 105.814 252.74 107.173 252.74V251.74ZM103.728 251.063C102.665 250.592 101.734 249.948 100.93 249.13L100.217 249.83C101.109 250.74 102.146 251.456 103.323 251.977L103.728 251.063ZM100.937 249.136C100.149 248.303 99.5256 247.332 99.0679 246.218L98.143 246.598C98.6453 247.82 99.3341 248.897 100.21 249.824L100.937 249.136ZM99.0701 246.223C98.6313 245.119 98.4094 243.918 98.4094 242.616H97.4094C97.4094 244.034 97.6516 245.361 98.1408 246.593L99.0701 246.223ZM98.4094 242.616C98.4094 241.331 98.6311 240.147 99.0692 239.059L98.1416 238.685C97.6518 239.901 97.4094 241.213 97.4094 242.616H98.4094ZM99.0679 239.062C99.5253 237.949 100.148 236.987 100.934 236.171L100.213 235.477C99.3353 236.389 98.6456 237.459 98.143 238.682L99.0679 239.062ZM100.933 236.171C101.736 235.338 102.667 234.687 103.728 234.217L103.323 233.303C102.144 233.825 101.106 234.55 100.213 235.477L100.933 236.171ZM103.728 234.217C104.78 233.751 105.926 233.516 107.173 233.516V232.516C105.797 232.516 104.511 232.777 103.323 233.303L103.728 234.217ZM107.173 233.516C108.365 233.516 109.36 233.671 110.171 233.966L110.512 233.026C109.563 232.681 108.446 232.516 107.173 232.516V233.516ZM110.173 233.967C111.005 234.264 111.851 234.759 112.712 235.466L113.347 234.694C112.416 233.929 111.47 233.368 110.51 233.025L110.173 233.967ZM112.729 235.48C112.816 235.545 112.86 235.6 112.883 235.64L113.752 235.144C113.647 234.96 113.499 234.807 113.329 234.68L112.729 235.48ZM112.933 235.712C112.96 235.745 112.965 235.764 112.966 235.775L113.956 235.633C113.926 235.42 113.835 235.231 113.702 235.072L112.933 235.712ZM112.987 235.862C112.997 235.891 113.009 235.953 113.009 236.064H114.009C114.009 235.887 113.99 235.709 113.936 235.546L112.987 235.862ZM113.009 236.064C113.009 236.228 112.956 236.352 112.833 236.466L113.514 237.198C113.839 236.896 114.009 236.508 114.009 236.064H113.009ZM112.82 236.478C112.708 236.591 112.565 236.658 112.356 236.669L112.406 237.667C112.838 237.646 113.223 237.489 113.527 237.186L112.82 236.478ZM112.355 236.669C112.196 236.677 112.027 236.628 111.835 236.47L111.2 237.242C111.552 237.532 111.959 237.691 112.408 237.667L112.355 236.669ZM111.845 236.478C111.218 235.936 110.558 235.515 109.865 235.22L109.474 236.14C110.06 236.389 110.633 236.752 111.19 237.234L111.845 236.478ZM109.869 235.222C109.158 234.912 108.249 234.772 107.173 234.772V235.772C108.177 235.772 108.933 235.904 109.47 236.138L109.869 235.222ZM107.173 234.772C106.159 234.772 105.2 234.979 104.3 235.394L104.719 236.302C105.483 235.949 106.3 235.772 107.173 235.772V234.772ZM104.3 235.394C103.41 235.805 102.622 236.37 101.939 237.087L102.664 237.777C103.261 237.15 103.945 236.659 104.719 236.302L104.3 235.394ZM101.935 237.092C101.266 237.812 100.746 238.65 100.372 239.601L101.303 239.967C101.633 239.126 102.088 238.396 102.668 237.772L101.935 237.092ZM100.373 239.598C99.9961 240.541 99.8094 241.548 99.8094 242.616H100.809C100.809 241.668 100.975 240.787 101.302 239.97L100.373 239.598ZM99.8094 242.616C99.8094 243.699 99.9958 244.721 100.372 245.679L101.303 245.313C100.975 244.479 100.809 243.581 100.809 242.616H99.8094ZM100.373 245.682C100.747 246.617 101.268 247.446 101.935 248.164L102.668 247.484C102.087 246.858 101.632 246.135 101.302 245.31L100.373 245.682ZM101.939 248.169C102.622 248.886 103.41 249.451 104.3 249.862L104.719 248.954C103.945 248.597 103.261 248.106 102.664 247.479L101.939 248.169ZM104.307 249.865C105.205 250.263 106.162 250.46 107.173 250.46V249.46C106.296 249.46 105.478 249.289 104.712 248.951L104.307 249.865ZM107.173 250.46C108.046 250.46 108.874 250.314 109.654 250.02L109.301 249.084C108.641 249.334 107.933 249.46 107.173 249.46V250.46ZM109.66 250.018C110.439 249.713 111.181 249.299 111.886 248.778L111.293 247.974C110.654 248.445 109.988 248.815 109.295 249.086L109.66 250.018ZM111.882 248.781C112.1 248.624 112.257 248.595 112.371 248.609L112.488 247.615C112.058 247.565 111.655 247.712 111.297 247.971L111.882 248.781ZM112.402 248.611C112.563 248.62 112.68 248.677 112.782 248.787L113.517 248.109C113.235 247.803 112.872 247.636 112.457 247.613L112.402 248.611ZM112.796 248.802C112.869 248.874 112.937 249.004 112.937 249.264H113.937C113.937 248.82 113.814 248.406 113.503 248.094L112.796 248.802ZM112.937 249.264C112.937 249.356 112.919 249.453 112.877 249.558L113.806 249.93C113.891 249.715 113.937 249.492 113.937 249.264H112.937ZM112.867 249.586C112.853 249.627 112.817 249.693 112.721 249.778L113.386 250.526C113.578 250.355 113.734 250.149 113.816 249.902L112.867 249.586ZM112.734 249.767C111.929 250.436 111.06 250.933 110.126 251.265L110.461 252.207C111.511 251.835 112.482 251.276 113.373 250.537L112.734 249.767ZM110.133 251.262C109.195 251.58 108.209 251.74 107.173 251.74V252.74C108.314 252.74 109.408 252.564 110.454 252.21L110.133 251.262ZM113.535 248.774L111.135 248.294L110.939 249.274L113.339 249.754L113.535 248.774ZM111.537 248.784V244.488H110.537V248.784H111.537ZM111.037 243.988H107.725V244.988H111.037V243.988ZM107.725 243.988C107.48 243.988 107.304 243.919 107.165 243.798L106.51 244.554C106.851 244.849 107.267 244.988 107.725 244.988V243.988ZM107.165 243.798C107.035 243.686 106.977 243.56 106.977 243.384H105.977C105.977 243.848 106.159 244.25 106.51 244.554L107.165 243.798ZM106.977 243.384C106.977 243.208 107.035 243.082 107.165 242.97L106.51 242.214C106.159 242.518 105.977 242.92 105.977 243.384H106.977ZM107.165 242.97C107.304 242.849 107.48 242.78 107.725 242.78V241.78C107.267 241.78 106.851 241.919 106.51 242.214L107.165 242.97ZM107.725 242.78H112.213V241.78H107.725V242.78ZM112.213 242.78C112.461 242.78 112.618 242.855 112.736 242.981L113.467 242.299C113.136 241.945 112.702 241.78 112.213 241.78V242.78ZM112.748 242.994C112.863 243.109 112.937 243.269 112.937 243.528H113.937C113.937 243.051 113.788 242.619 113.455 242.286L112.748 242.994ZM112.937 243.528V249.264H113.937V243.528H112.937ZM134.013 251.64L133.659 251.994L134.013 251.64ZM133.653 245.16H134.153V245.013L134.073 244.889L133.653 245.16ZM127.245 235.2L126.82 235.463L126.824 235.471L127.245 235.2ZM127.005 234.264L127.498 234.346L127.499 234.342L127.005 234.264ZM127.413 233.544L127.722 233.937L127.725 233.934L127.413 233.544ZM128.877 233.448L128.565 233.838L128.577 233.848L128.59 233.858L128.877 233.448ZM129.333 233.952L129.756 233.685L129.754 233.682L129.333 233.952ZM135.429 243.624V244.124H136.335L135.852 243.357L135.429 243.624ZM134.469 243.624L134.047 243.356L133.56 244.124H134.469V243.624ZM140.661 233.856L140.245 233.579L140.239 233.588L140.661 233.856ZM141.117 233.424L141.356 233.863L141.371 233.855L141.385 233.846L141.117 233.424ZM142.485 233.568L142.118 233.907L142.124 233.914L142.131 233.922L142.485 233.568ZM142.821 234.312L142.324 234.364L142.324 234.367L142.821 234.312ZM142.581 235.2L143.001 235.472L143.004 235.467L142.581 235.2ZM136.125 245.16L135.705 244.888L135.625 245.012V245.16H136.125ZM135.765 251.64L136.118 251.994L135.765 251.64ZM134.877 251.5C134.675 251.5 134.514 251.434 134.366 251.286L133.659 251.994C133.992 252.326 134.407 252.5 134.877 252.5V251.5ZM134.366 251.286C134.224 251.144 134.153 250.977 134.153 250.752H133.153C133.153 251.231 133.322 251.656 133.659 251.994L134.366 251.286ZM134.153 250.752V245.16H133.153V250.752H134.153ZM134.073 244.889L127.665 234.929L126.824 235.471L133.232 245.431L134.073 244.889ZM127.67 234.937C127.503 234.667 127.476 234.478 127.498 234.346L126.512 234.182C126.438 234.626 126.571 235.061 126.82 235.463L127.67 234.937ZM127.499 234.342C127.529 234.152 127.605 234.029 127.722 233.937L127.104 233.151C126.772 233.411 126.577 233.768 126.511 234.186L127.499 234.342ZM127.725 233.934C127.878 233.813 128.04 233.756 128.229 233.756V232.756C127.81 232.756 127.428 232.891 127.101 233.154L127.725 233.934ZM128.229 233.756C128.425 233.756 128.519 233.802 128.565 233.838L129.189 233.058C128.915 232.838 128.577 232.756 128.229 232.756V233.756ZM128.59 233.858C128.681 233.921 128.792 234.034 128.912 234.222L129.754 233.682C129.586 233.422 129.392 233.199 129.164 233.038L128.59 233.858ZM128.91 234.219L135.006 243.891L135.852 243.357L129.756 233.685L128.91 234.219ZM135.429 243.124H134.469V244.124H135.429V243.124ZM134.891 243.892L141.083 234.124L140.239 233.588L134.047 243.356L134.891 243.892ZM141.077 234.133C141.167 233.998 141.262 233.915 141.356 233.863L140.878 232.985C140.62 233.125 140.411 233.33 140.245 233.579L141.077 234.133ZM141.385 233.846C141.465 233.795 141.582 233.756 141.765 233.756V232.756C141.436 232.756 141.121 232.829 140.849 233.002L141.385 233.846ZM141.765 233.756C141.916 233.756 142.022 233.804 142.118 233.907L142.852 233.229C142.564 232.916 142.19 232.756 141.765 232.756V233.756ZM142.131 233.922C142.232 234.022 142.302 234.159 142.324 234.364L143.318 234.26C143.276 233.857 143.122 233.498 142.838 233.214L142.131 233.922ZM142.324 234.367C142.341 234.518 142.305 234.701 142.158 234.933L143.004 235.467C143.241 235.091 143.365 234.682 143.318 234.257L142.324 234.367ZM142.161 234.928L135.705 244.888L136.545 245.432L143.001 235.472L142.161 234.928ZM135.625 245.16V250.752H136.625V245.16H135.625ZM135.625 250.752C135.625 250.977 135.554 251.144 135.411 251.286L136.118 251.994C136.456 251.656 136.625 251.231 136.625 250.752H135.625ZM135.411 251.286C135.269 251.429 135.102 251.5 134.877 251.5V252.5C135.356 252.5 135.781 252.331 136.118 251.994L135.411 251.286ZM148.099 251.64L147.746 251.994L148.099 251.64ZM148.099 233.616L148.44 233.982L148.447 233.976L148.453 233.97L148.099 233.616ZM160.723 233.592L160.37 233.946L160.376 233.952L160.383 233.958L160.723 233.592ZM160.723 235.248L161.063 235.614V235.614L160.723 235.248ZM150.235 235.56V235.06H149.735V235.56H150.235ZM150.235 241.392H149.735V241.892H150.235V241.392ZM158.011 241.728L157.658 242.082L157.664 242.088L157.671 242.094L158.011 241.728ZM158.011 243.384L158.351 243.75L158.358 243.744L158.365 243.738L158.011 243.384ZM150.235 243.696V243.196H149.735V243.696H150.235ZM150.235 249.696H149.735V250.196H150.235V249.696ZM160.723 250.008L161.063 249.642L160.723 250.008ZM160.723 251.688L161.063 252.054L161.07 252.048L161.077 252.042L160.723 251.688ZM148.987 251.5C148.762 251.5 148.595 251.429 148.453 251.286L147.746 251.994C148.083 252.331 148.508 252.5 148.987 252.5V251.5ZM148.453 251.286C148.31 251.144 148.239 250.977 148.239 250.752H147.239C147.239 251.231 147.408 251.656 147.746 251.994L148.453 251.286ZM148.239 250.752V234.504H147.239V250.752H148.239ZM148.239 234.504C148.239 234.256 148.314 234.099 148.44 233.982L147.758 233.25C147.404 233.581 147.239 234.016 147.239 234.504H148.239ZM148.453 233.97C148.595 233.827 148.762 233.756 148.987 233.756V232.756C148.508 232.756 148.083 232.925 147.746 233.262L148.453 233.97ZM148.987 233.756H159.835V232.756H148.987V233.756ZM159.835 233.756C160.094 233.756 160.254 233.831 160.37 233.946L161.077 233.238C160.744 232.905 160.312 232.756 159.835 232.756V233.756ZM160.383 233.958C160.489 234.057 160.559 234.196 160.559 234.432H161.559C161.559 233.964 161.405 233.543 161.063 233.226L160.383 233.958ZM160.559 234.432C160.559 234.644 160.494 234.778 160.383 234.882L161.063 235.614C161.4 235.302 161.559 234.892 161.559 234.432H160.559ZM160.383 234.882C160.27 234.987 160.104 235.06 159.835 235.06V236.06C160.302 236.06 160.729 235.925 161.063 235.614L160.383 234.882ZM159.835 235.06H150.235V236.06H159.835V235.06ZM149.735 235.56V241.392H150.735V235.56H149.735ZM150.235 241.892H157.123V240.892H150.235V241.892ZM157.123 241.892C157.382 241.892 157.542 241.967 157.658 242.082L158.365 241.374C158.032 241.041 157.6 240.892 157.123 240.892V241.892ZM157.671 242.094C157.782 242.198 157.847 242.332 157.847 242.544H158.847C158.847 242.084 158.688 241.674 158.351 241.362L157.671 242.094ZM157.847 242.544C157.847 242.756 157.782 242.906 157.658 243.03L158.365 243.738C158.689 243.414 158.847 243.004 158.847 242.544H157.847ZM157.671 243.018C157.557 243.123 157.392 243.196 157.123 243.196V244.196C157.59 244.196 158.017 244.061 158.351 243.75L157.671 243.018ZM157.123 243.196H150.235V244.196H157.123V243.196ZM149.735 243.696V249.696H150.735V243.696H149.735ZM150.235 250.196H159.835V249.196H150.235V250.196ZM159.835 250.196C160.104 250.196 160.27 250.269 160.383 250.374L161.063 249.642C160.729 249.331 160.302 249.196 159.835 249.196V250.196ZM160.383 250.374C160.494 250.478 160.559 250.612 160.559 250.824H161.559C161.559 250.364 161.4 249.954 161.063 249.642L160.383 250.374ZM160.559 250.824C160.559 251.06 160.489 251.215 160.37 251.334L161.077 252.042C161.405 251.713 161.559 251.292 161.559 250.824H160.559ZM160.383 251.322C160.27 251.427 160.104 251.5 159.835 251.5V252.5C160.302 252.5 160.729 252.365 161.063 252.054L160.383 251.322ZM159.835 251.5H148.987V252.5H159.835V251.5ZM167.304 251.64L166.95 251.994L167.304 251.64ZM167.304 233.616L167.645 233.982L167.651 233.976L167.657 233.97L167.304 233.616ZM179.928 233.592L179.574 233.946L179.581 233.952L179.588 233.958L179.928 233.592ZM179.928 235.248L180.268 235.614V235.614L179.928 235.248ZM169.44 235.56V235.06H168.94V235.56H169.44ZM169.44 241.392H168.94V241.892H169.44V241.392ZM177.216 241.728L176.862 242.082L176.869 242.088L176.876 242.094L177.216 241.728ZM177.216 243.384L177.556 243.75L177.563 243.744L177.569 243.738L177.216 243.384ZM169.44 243.696V243.196H168.94V243.696H169.44ZM169.44 249.696H168.94V250.196H169.44V249.696ZM179.928 250.008L180.268 249.642L179.928 250.008ZM179.928 251.688L180.268 252.054L180.275 252.048L180.281 252.042L179.928 251.688ZM168.192 251.5C167.967 251.5 167.8 251.429 167.657 251.286L166.95 251.994C167.288 252.331 167.713 252.5 168.192 252.5V251.5ZM167.657 251.286C167.515 251.144 167.444 250.977 167.444 250.752H166.444C166.444 251.231 166.613 251.656 166.95 251.994L167.657 251.286ZM167.444 250.752V234.504H166.444V250.752H167.444ZM167.444 234.504C167.444 234.256 167.519 234.099 167.645 233.982L166.963 233.25C166.608 233.581 166.444 234.016 166.444 234.504H167.444ZM167.657 233.97C167.8 233.827 167.967 233.756 168.192 233.756V232.756C167.713 232.756 167.288 232.925 166.95 233.262L167.657 233.97ZM168.192 233.756H179.04V232.756H168.192V233.756ZM179.04 233.756C179.298 233.756 179.459 233.831 179.574 233.946L180.281 233.238C179.948 232.905 179.517 232.756 179.04 232.756V233.756ZM179.588 233.958C179.694 234.057 179.764 234.196 179.764 234.432H180.764C180.764 233.964 180.61 233.543 180.268 233.226L179.588 233.958ZM179.764 234.432C179.764 234.644 179.699 234.778 179.588 234.882L180.268 235.614C180.605 235.302 180.764 234.892 180.764 234.432H179.764ZM179.588 234.882C179.474 234.987 179.309 235.06 179.04 235.06V236.06C179.507 236.06 179.933 235.925 180.268 235.614L179.588 234.882ZM179.04 235.06H169.44V236.06H179.04V235.06ZM168.94 235.56V241.392H169.94V235.56H168.94ZM169.44 241.892H176.328V240.892H169.44V241.892ZM176.328 241.892C176.586 241.892 176.747 241.967 176.862 242.082L177.569 241.374C177.236 241.041 176.805 240.892 176.328 240.892V241.892ZM176.876 242.094C176.987 242.198 177.052 242.332 177.052 242.544H178.052C178.052 242.084 177.893 241.674 177.556 241.362L176.876 242.094ZM177.052 242.544C177.052 242.756 176.986 242.906 176.862 243.03L177.569 243.738C177.893 243.414 178.052 243.004 178.052 242.544H177.052ZM176.876 243.018C176.762 243.123 176.597 243.196 176.328 243.196V244.196C176.795 244.196 177.221 244.061 177.556 243.75L176.876 243.018ZM176.328 243.196H169.44V244.196H176.328V243.196ZM168.94 243.696V249.696H169.94V243.696H168.94ZM169.44 250.196H179.04V249.196H169.44V250.196ZM179.04 250.196C179.309 250.196 179.474 250.269 179.588 250.374L180.268 249.642C179.933 249.331 179.507 249.196 179.04 249.196V250.196ZM179.588 250.374C179.699 250.478 179.764 250.612 179.764 250.824H180.764C180.764 250.364 180.605 249.954 180.268 249.642L179.588 250.374ZM179.764 250.824C179.764 251.06 179.694 251.215 179.574 251.334L180.281 252.042C180.61 251.713 180.764 251.292 180.764 250.824H179.764ZM179.588 251.322C179.474 251.427 179.309 251.5 179.04 251.5V252.5C179.507 252.5 179.933 252.365 180.268 252.054L179.588 251.322ZM179.04 251.5H168.192V252.5H179.04V251.5Z" fill="white"/>
</g>
<defs>
<filter id="filter0_d_100_3" x="-4.01221" y="0.107697" width="189.624" height="218.594" filterUnits="userSpaceOnUse" color-interpolation-filters="sRGB">
<feFlood flood-opacity="0" result="BackgroundImageFix"/>
<feColorMatrix in="SourceAlpha" type="matrix" values="0 0 0 0 0 0 0 0 0 0 0 0 0 0 0 0 0 0 127 0" result="hardAlpha"/>
<feOffset dy="4"/>
<feGaussianBlur stdDeviation="2"/>
<feComposite in2="hardAlpha" operator="out"/>
<feColorMatrix type="matrix" values="0 0 0 0 0 0 0 0 0 0 0 0 0 0 0 0 0 0 0.25 0"/>
<feBlend mode="normal" in2="BackgroundImageFix" result="effect1_dropShadow_100_3"/>
<feBlend mode="normal" in="SourceGraphic" in2="effect1_dropShadow_100_3" result="shape"/>
</filter>
<filter id="filter1_d_100_3" x="17.536" y="233.016" width="166.728" height="27.224" filterUnits="userSpaceOnUse" color-interpolation-filters="sRGB">
<feFlood flood-opacity="0" result="BackgroundImageFix"/>
<feColorMatrix in="SourceAlpha" type="matrix" values="0 0 0 0 0 0 0 0 0 0 0 0 0 0 0 0 0 0 127 0" result="hardAlpha"/>
<feOffset dy="4"/>
<feGaussianBlur stdDeviation="2"/>
<feComposite in2="hardAlpha" operator="out"/>
<feColorMatrix type="matrix" values="0 0 0 0 0 0 0 0 0 0 0 0 0 0 0 0 0 0 0.25 0"/>
<feBlend mode="normal" in2="BackgroundImageFix" result="effect1_dropShadow_100_3"/>
<feBlend mode="normal" in="SourceGraphic" in2="effect1_dropShadow_100_3" result="shape"/>
</filter>
<clipPath id="clip0_100_3">
<rect width="196.72" height="267.23" fill="white"/>
</clipPath>
</defs>
</svg>
