<svg width="20" height="20" viewBox="0 0 20 20" fill="none" xmlns="http://www.w3.org/2000/svg">
<path d="M12.5703 14.9518C12.6817 14.9518 12.7899 14.9079 12.8693 14.8285L18.1512 9.54658C18.2306 9.46732 18.2746 9.36091 18.2746 9.24932C18.2746 9.13789 18.2306 9.02975 18.1512 8.95206L11.052 1.85287C10.8882 1.68902 10.6212 1.68902 10.4556 1.85287L5.17369 7.13478C5.00984 7.29863 5.00984 7.56545 5.17369 7.73103L12.2729 14.8306C12.3506 14.9083 12.4587 14.9523 12.5701 14.9523L12.5703 14.9518ZM17.256 9.24927L12.5703 13.9349L6.06697 7.42997L10.753 2.74432L17.256 9.24927Z" fill="#263D4E"/>
<path d="M2.29702 19.9999C2.40515 19.9999 2.51313 19.9594 2.596 19.8767L10.2565 12.2166C10.3359 12.1372 10.3799 12.0308 10.3799 11.9192C10.3799 11.8077 10.3359 11.6996 10.2565 11.6219L8.3797 9.74545C8.21585 9.5816 7.94902 9.5816 7.78345 9.74545L0.123358 17.4055C0.0439405 17.485 -3.8147e-06 17.5914 -3.8147e-06 17.703C-3.8147e-06 17.8144 0.0439444 17.9225 0.123358 18.0002L1.99967 19.8768C2.08254 19.9596 2.19067 20 2.29708 20L2.29702 19.9999ZM9.36286 11.9191L2.29702 18.983L1.01647 17.7027L8.08232 10.6369L9.36286 11.9191Z" fill="#263D4E"/>
<path d="M12.8339 16.6794C13.1176 16.6794 13.3862 16.568 13.5872 16.3669L19.6884 10.2657C20.1038 9.85014 20.1038 9.17465 19.6884 8.75905L19.4702 8.5412C19.0546 8.12559 18.3793 8.12559 17.9638 8.5412L11.8627 14.6424C11.4471 15.0578 11.4471 15.7334 11.8627 16.1491L12.0821 16.3669C12.283 16.5697 12.5501 16.6794 12.8339 16.6794H12.8339ZM18.7169 9.07153C18.7741 9.07153 18.8317 9.0935 18.874 9.13745L19.0921 9.35529C19.1343 9.39751 19.1576 9.45323 19.1576 9.5124C19.1576 9.57157 19.1343 9.62728 19.0921 9.6695L12.991 15.7707C12.9065 15.8551 12.7595 15.8551 12.675 15.7707L12.4573 15.5528C12.3712 15.4666 12.3712 15.3248 12.4573 15.2369L18.5581 9.13572C18.6036 9.0935 18.6595 9.07153 18.7169 9.07153H18.7169Z" fill="#263D4E"/>
<path d="M4.6044 8.44961C4.88816 8.44961 5.1567 8.33818 5.35775 8.13729L11.4589 2.03614C11.66 1.83524 11.7715 1.56825 11.7715 1.28278C11.7715 0.999022 11.66 0.730487 11.4589 0.529432L11.2412 0.311587C10.8256 -0.103862 10.1498 -0.103862 9.73435 0.311587L3.6332 6.41274C3.21759 6.82835 3.21759 7.50399 3.6332 7.91944L3.85136 8.13745C4.05241 8.33834 4.32065 8.44977 4.60439 8.44977L4.6044 8.44961ZM10.4878 0.841758C10.547 0.841758 10.6044 0.865457 10.6466 0.907675L10.8643 1.12552C10.9065 1.1679 10.9304 1.22361 10.9304 1.28263C10.9304 1.3418 10.9065 1.39924 10.8643 1.43974L4.76315 7.54089C4.67871 7.62533 4.53181 7.62533 4.44737 7.54089L4.22796 7.32288C4.14007 7.23515 4.1418 7.09484 4.22796 7.0071L10.3291 0.905952C10.3713 0.865459 10.4288 0.841758 10.4878 0.841758Z" fill="#263D4E"/>
</svg>
