<svg width="248" height="135" viewBox="0 0 248 135" fill="none" xmlns="http://www.w3.org/2000/svg">
<path d="M14.0651 22.3806C20.1688 20.5416 26.257 18.7181 32.3607 16.879C33.8982 16.4115 31.3667 15.788 31.0561 15.7413C29.4564 15.4608 27.6392 15.5699 26.0861 16.0374C19.9824 17.8765 13.8943 19.7 7.79057 21.539C6.253 22.0066 8.78456 22.63 9.09518 22.6768C10.6793 22.9729 12.512 22.8482 14.0651 22.3806Z" fill="#263D4E"/>
<path d="M17.4198 7.44988C18.4759 27.4614 18.8176 47.4886 18.4759 67.5313C18.4449 69.4015 25.7134 69.4794 25.7445 67.5313C26.0862 47.4886 25.7289 27.4614 24.6884 7.44988C24.5796 5.48613 17.3266 5.61081 17.4198 7.44988Z" fill="#263D4E"/>
<path d="M17.5907 26.1523C11.751 37.5296 5.8958 48.9224 0.0561351 60.2997C-0.689354 61.7647 6.22195 62.544 7.06063 60.9231C12.9003 49.5459 18.7555 38.153 24.5952 26.7757C25.3562 25.3107 18.4293 24.5314 17.5907 26.1523Z" fill="#263D4E"/>
<path d="M19.6873 36.9217C22.6382 38.9478 25.5891 40.9583 28.5244 42.9844C29.5029 43.6546 31.8636 43.2806 32.9974 43.2494C33.4012 43.2338 35.8395 43 35.5289 42.7818C32.578 40.7557 29.6271 38.7452 26.6918 36.7191C25.7133 36.049 23.3526 36.423 22.2188 36.4542C21.8305 36.4698 19.3766 36.7191 19.6873 36.9217Z" fill="#263D4E"/>
<path d="M39.008 6.43686C39.6292 10.9098 40.2505 15.3828 40.8717 19.8558C41.2289 22.443 48.4664 22.1624 48.1402 19.8558C47.519 15.3828 46.8977 10.9098 46.2765 6.43686C45.9038 3.83411 38.6818 4.11464 39.008 6.43686Z" fill="#263D4E"/>
<path d="M45.6397 8.12006C48.4664 7.06026 51.4017 6.1719 54.3992 5.68875C57.5676 5.17444 58.2664 5.9537 58.3907 9.28896C58.5615 14.1827 57.1327 19.3727 55.4087 23.8768C54.4769 26.2925 61.6211 26.838 62.4132 24.7652C64.4323 19.4973 69.0916 6.93558 62.6773 3.28861C56.4338 -0.264838 46.4939 3.50681 40.499 5.76668C39.0235 6.32775 39.4118 7.46548 40.499 8.12006C41.9123 8.97725 44.1798 8.66555 45.6397 8.12006Z" fill="#263D4E"/>
<path d="M49.3206 16.4426C51.6192 15.9283 53.9333 15.3984 56.2319 14.8841C57.0861 14.697 58.7945 13.9957 57.5365 13.0762C56.3251 12.1878 53.9333 12.2969 52.5665 12.593C50.268 13.1073 47.9538 13.6372 45.6552 14.1516C44.801 14.3386 43.0926 15.0399 44.3506 15.9595C45.5621 16.8634 47.9538 16.7543 49.3206 16.4426Z" fill="#263D4E"/>
<path d="M43.543 24.9522C48.8236 25.0301 54.0575 24.3756 59.0119 22.5209C60.3631 22.0066 58.0801 21.7572 57.7073 21.7105C56.2319 21.5546 54.1663 21.3832 52.7374 21.9287C49.771 23.0352 46.7269 23.8301 43.543 23.7833C43.1392 23.7833 39.9088 23.721 39.9088 24.3756C39.9088 24.999 43.3256 24.9522 43.543 24.9522Z" fill="#263D4E"/>
<path d="M42.2229 36.9685C50.299 35.145 58.3907 33.3059 66.4668 31.4824C67.9112 31.1551 65.3641 30.859 65.1622 30.8278C63.6402 30.5785 61.7143 30.6564 60.1923 30.9993C52.1162 32.8228 44.0245 34.6618 35.9484 36.4853C34.504 36.8126 37.0511 37.1087 37.253 37.1399C38.775 37.3893 40.7008 37.3113 42.2229 36.9685Z" fill="#263D4E"/>
<path d="M42.3471 38.2153C41.1823 44.2313 39.4739 50.0446 37.1598 55.7176C36.2434 57.9619 43.3722 58.523 44.1643 56.5437C46.5871 50.6057 48.4042 44.5118 49.6157 38.1997C49.9884 36.3451 42.8131 35.8464 42.3471 38.2153Z" fill="#263D4E"/>
<path d="M49.0255 48.7822C52.2404 47.0054 55.564 45.6495 59.043 44.5118C60.5184 44.0286 62.289 43.2026 63.8576 43.0468C68.781 42.548 68.2529 44.5741 67.8957 48.0341C67.5074 51.7278 66.8396 55.3903 65.9854 59.0061C65.6126 60.5491 62.1337 68.7158 63.6557 70.0405C61.9628 68.5599 54.9739 69.7444 57.3812 71.8484C61.0931 75.1058 67.4453 74.1707 69.9147 69.8379C73.3937 63.7441 74.8847 54.05 75.2729 47.1301C76.1582 31.2643 50.4388 42.6571 43.8847 46.2729C40.3436 48.2211 47.022 49.8887 49.0255 48.7822Z" fill="#263D4E"/>
<path d="M50.1593 46.6314C49.041 52.3356 46.9909 57.6346 44.0556 62.6375C42.8286 64.7259 49.8642 65.5831 51.0601 63.5414C54.1507 58.2736 56.2474 52.6317 57.4278 46.6314C57.8316 44.5741 50.6562 44.1065 50.1593 46.6314Z" fill="#263D4E"/>
<path d="M59.4779 45.2287C57.5365 55.1254 53.809 64.4142 48.4974 72.9706C46.9909 75.4019 54.0731 76.3682 55.5019 74.0615C61.031 65.1623 64.7274 55.515 66.7464 45.2287C67.2434 42.6883 60.037 42.3298 59.4779 45.2287Z" fill="#263D4E"/>
<path d="M98.5694 11.9072C103.617 11.315 108.509 10.224 113.308 8.54077C113.712 8.4005 111.01 8.07321 110.777 8.05762C109.395 8.01086 107.655 7.85501 106.304 8.32257C102.111 9.78759 97.8395 10.8318 93.4287 11.3461C92.1862 11.4864 92.2949 11.689 93.4287 11.8916C95.0439 12.1877 96.9542 12.0942 98.5694 11.9072Z" fill="#263D4E"/>
<path d="M98.4606 22.9105C103.881 22.9105 109.177 22.3026 114.302 20.4791C114.706 20.3389 111.988 19.996 111.771 19.996C110.388 19.9492 108.649 19.7934 107.298 20.2765C104.487 21.274 101.474 22.1156 98.4606 22.1156C98.1189 22.1156 94.8264 22.0533 94.8264 22.5052C94.8264 22.9416 98.3519 22.9105 98.4606 22.9105Z" fill="#263D4E"/>
<path d="M101.707 2.08846C101.94 11.8605 101.862 21.6324 101.474 31.3889C101.38 33.7422 108.649 33.8513 108.742 31.3889C109.13 21.6169 109.208 11.8605 108.975 2.08846C108.913 -0.342848 101.644 -0.296092 101.707 2.08846Z" fill="#263D4E"/>
<path d="M91.4716 37.4983C101.474 35.5657 111.367 33.15 121.136 30.2511C125.671 28.8952 120.189 26.0275 117.471 26.8379C108.276 29.581 98.9731 31.872 89.5458 33.6955C84.7778 34.5994 87.9306 38.184 91.4716 37.4983Z" fill="#263D4E"/>
<path d="M97.7307 42.3142C98.15 51.7744 97.917 61.2036 97.0473 70.6327C96.8143 73.1263 104.067 73.3289 104.316 70.6327C105.186 61.2036 105.419 51.7744 104.999 42.3142C104.875 39.6647 97.6064 39.727 97.7307 42.3142Z" fill="#263D4E"/>
<path d="M107.562 43.5766C108.105 43.2181 108.68 42.8908 109.255 42.5791C110.109 42.2206 110.016 42.1427 108.975 42.3297C110.062 43.2804 110.078 45.0728 110.218 46.3663C110.559 49.6237 110.202 53.0992 110.187 56.3721C110.187 59.4112 110.171 62.4348 110.171 65.4739C110.171 67.3286 111.025 73.7342 109.472 74.981C111.802 74.981 114.147 74.981 116.477 74.981C114.768 74.1861 113.464 70.1963 112.609 68.5754C111.771 67.0013 105.434 68.7624 105.341 68.5754C106.304 70.3989 107.453 74.3731 109.472 75.3083C110.901 75.9784 115.172 76.3525 116.477 75.3083C118.045 74.0614 117.424 71.8951 117.424 70.0404C117.424 67.0013 117.44 63.9777 117.44 60.9386C117.44 58.2112 117.455 55.4837 117.455 52.7563C117.455 50.1692 118.061 46.3975 117.16 43.935C114.97 37.9659 104.378 40.9271 100.542 43.2649C99.8739 43.6701 102.949 43.9974 103.073 44.013C104.347 44.0753 106.428 44.2779 107.562 43.5766Z" fill="#263D4E"/>
<path d="M103.896 53.8005C104.813 53.6914 105.931 53.7226 107.049 54.0031C108.618 54.4083 110.777 54.533 112.019 53.2394C113.137 52.0705 112.004 50.6835 110.715 50.3562C107.81 49.6081 104.953 49.3899 101.971 49.7172C100.806 49.8418 98.7712 50.8237 99.4391 52.3199C100.107 53.8784 102.53 53.9564 103.896 53.8005Z" fill="#263D4E"/>
<path d="M107.065 63.2453C108.944 61.2659 111.134 59.5827 113.65 58.4917C114.83 57.9774 116.135 56.902 114.955 55.624C113.898 54.4707 111.351 54.2837 109.985 54.8759C106.521 56.3721 103.415 58.3826 100.79 61.1256C99.641 62.3413 100.868 63.5725 102.095 63.9933C103.555 64.5077 105.916 64.4609 107.065 63.2453Z" fill="#263D4E"/>
<path d="M141.916 5.78221C137.195 10.2864 131.697 13.5281 125.469 15.4139C123.947 15.8659 126.463 16.4581 126.774 16.5205C128.358 16.801 130.206 16.6919 131.744 16.2244C138.22 14.2606 144.029 10.8942 148.921 6.21859C149.666 5.51726 146.607 5.23672 146.389 5.22113C145.287 5.14321 142.833 4.90943 141.916 5.78221Z" fill="#263D4E"/>
<path d="M127.488 22.4429C128.311 24.2664 129.134 26.0899 129.958 27.8978C130.33 28.7394 132.862 28.5679 133.592 28.5679C133.84 28.5679 137.428 28.3497 137.226 27.8978C136.403 26.0743 135.58 24.2508 134.757 22.4429C134.384 21.6013 131.852 21.7727 131.122 21.7727C130.874 21.7883 127.286 22.0065 127.488 22.4429Z" fill="#263D4E"/>
<path d="M136.869 20.4636C137.055 21.6169 137.242 22.7702 137.428 23.9235C137.474 24.2352 138.344 24.3599 138.5 24.3911C139.323 24.5469 140.223 24.5937 141.062 24.5781C141.388 24.5781 144.79 24.5469 144.696 23.9235C144.51 22.7702 144.324 21.6169 144.137 20.4636C144.091 20.1519 143.221 20.0272 143.066 19.996C142.242 19.8402 141.342 19.7934 140.503 19.809C140.161 19.809 136.76 19.8246 136.869 20.4636Z" fill="#263D4E"/>
<path d="M146.778 15.9905C147.073 20.6194 145.799 24.9677 142.988 28.6614C142.289 29.5809 145.147 29.8147 145.52 29.8459C146.514 29.9238 149.247 30.1576 149.993 29.1757C152.912 25.3573 154.341 20.8064 154.046 15.9905C153.953 14.4943 146.7 14.697 146.778 15.9905Z" fill="#263D4E"/>
<path d="M134.586 36.5944C137.583 35.4722 140.643 34.5839 143.811 34.1475C145.023 33.976 146.327 34.054 147.508 33.8202C148.905 33.8202 148.735 33.7422 146.98 33.602C147.197 34.2098 147.306 34.8488 147.29 35.4878C147.601 40.3348 145.193 44.9013 141.777 48.1431C140.721 49.1405 143.92 49.8263 144.308 49.8886C145.768 50.0601 147.647 49.9666 148.781 48.9068C151.484 46.3663 153.347 43.2181 154.17 39.5712C154.761 36.9684 155.289 33.0721 152.493 31.6382C149.744 30.2355 145.473 30.9836 142.584 31.3265C138.08 31.8564 133.701 32.9786 129.461 34.5839C128.047 35.1138 128.342 35.9865 129.461 36.5788C130.812 37.3269 133.172 37.1243 134.586 36.5944Z" fill="#263D4E"/>
<path d="M125.158 45.5248C137.568 44.387 149.93 42.8752 162.262 40.9894C167.154 40.2413 163.365 37.9815 160.336 38.449C148.02 40.3348 135.642 41.8466 123.233 42.9843C118.278 43.4207 122.161 45.7897 125.158 45.5248Z" fill="#263D4E"/>
<path d="M134.555 54.2837C140.037 53.6759 145.442 52.6472 150.769 51.1822C151.949 50.8549 153.099 50.0601 152.074 48.9067C151.08 47.8002 148.362 47.9716 147.104 48.3145C142.336 49.6081 137.537 50.5276 132.629 51.0731C131.557 51.1978 129.647 51.7121 130.097 53.1148C130.501 54.4551 133.623 54.3772 134.555 54.2837Z" fill="#263D4E"/>
<path d="M136.217 36.797C137.242 43.0778 137.894 49.4055 138.049 55.7643C138.127 58.7878 138.096 61.827 137.956 64.8505C137.894 66.3311 138.236 72.3315 136.714 73.1887C137.894 73.0172 139.074 72.8458 140.255 72.6899C138.173 72.4717 136.139 69.0897 135.176 67.5935C133.747 65.4116 126.665 66.3311 128.171 68.6378C130.268 71.8483 133.141 75.4797 137.055 76.3525C140.441 77.1162 143.563 75.9317 144.588 72.5341C146.079 67.5624 145.458 60.923 145.333 55.7799C145.178 49.4055 144.526 43.0934 143.501 36.8125C143.035 34.0072 135.813 34.2877 136.217 36.797Z" fill="#263D4E"/>
<path d="M189.643 7.24729C183.959 14.5724 177.684 21.3676 170.835 27.6173C168.257 29.9707 175.215 31.4357 177.11 29.7057C183.959 23.456 190.234 16.6608 195.918 9.33572C198.154 6.45244 191.228 5.20561 189.643 7.24729Z" fill="#263D4E"/>
<path d="M184.689 17.1907C184.223 35.3943 183.757 53.598 183.276 71.8016C183.213 74.342 190.482 74.4044 190.544 71.8016C191.01 53.598 191.476 35.3943 191.957 17.1907C192.02 14.6503 184.751 14.5723 184.689 17.1907Z" fill="#263D4E"/>
<path d="M207.52 1.77684C208.824 4.13022 210.47 6.23424 212.474 8.04213C212.816 8.35384 213.747 8.43177 214.151 8.47852C215.068 8.58762 216.031 8.60321 216.947 8.55645C217.258 8.54086 220.131 8.22916 219.478 7.6525C217.599 5.9537 216.015 3.98995 214.788 1.77684C214.291 0.888475 212.008 1.04433 211.154 1.04433C210.905 1.02874 207.271 1.32486 207.52 1.77684Z" fill="#263D4E"/>
<path d="M220.364 0.904038C218.764 3.25742 217.164 5.6108 215.58 7.96419C214.85 9.03957 217.599 9.38245 218.112 9.42921C219.168 9.52272 221.839 9.69416 222.585 8.60318C224.184 6.2498 225.784 3.89642 227.368 1.54304C228.098 0.467649 225.349 0.124772 224.837 0.0780163C223.765 -0.0310809 221.109 -0.186934 220.364 0.904038Z" fill="#263D4E"/>
<path d="M205.656 14.8685C213.903 14.2295 222.15 13.5905 230.397 12.9515C235.382 12.5618 231.266 10.6916 228.471 10.9098C220.224 11.5488 211.977 12.1878 203.73 12.8268C198.729 13.2008 202.845 15.0867 205.656 14.8685Z" fill="#263D4E"/>
<path d="M213.452 24.0482C217.397 23.5806 221.342 23.1131 225.287 22.6455C226.157 22.5364 227.555 22.3494 226.592 21.5234C225.66 20.713 222.709 21.1026 221.622 21.2273C217.677 21.6948 213.732 22.1624 209.787 22.6299C208.917 22.739 207.52 22.9261 208.482 23.7521C209.43 24.5625 212.365 24.1729 213.452 24.0482Z" fill="#263D4E"/>
<path d="M214.058 13.7152C213.841 19.6687 213.639 25.6223 213.421 31.5915C213.375 32.9474 220.643 33.1033 220.69 31.5915C220.907 25.6379 221.109 19.6843 221.327 13.7152C221.373 12.3592 214.105 12.2034 214.058 13.7152Z" fill="#263D4E"/>
<path d="M204.18 36.9685C214.276 36.5944 224.324 35.784 234.342 34.506C239.172 33.8982 235.91 30.2979 232.416 30.7343C223.035 31.9188 213.623 32.6981 204.18 33.0565C199.847 33.228 199.754 37.1399 204.18 36.9685Z" fill="#263D4E"/>
<path d="M208.482 40.6466C205.128 44.4026 200.826 47.4106 196.663 50.2004C195.25 51.1511 197.098 52.2888 197.968 52.5538C199.552 53.0369 201.556 52.8655 202.938 51.9303C207.085 49.1406 211.402 46.1326 214.757 42.3765C216.916 39.9764 209.958 38.9945 208.482 40.6466Z" fill="#263D4E"/>
<path d="M199.816 51.6654C212.94 51.603 226.048 50.4965 238.939 48.0184C240.43 47.7379 239.84 47.5976 238.939 47.1768C237.712 46.6002 235.103 46.9274 233.798 47.1768C222.585 49.3276 211.216 50.4186 199.801 50.4809C199.242 50.4809 196.353 50.325 196.166 51.0731C196.042 51.603 199.723 51.6654 199.816 51.6654Z" fill="#263D4E"/>
<path d="M206.029 44.9949C207.24 55.3279 207.349 65.661 206.355 76.0096C208.607 75.7759 210.874 75.5421 213.126 75.3083C209.772 73.4381 207.566 70.1496 206.2 66.6117C205.516 64.835 198.387 65.2869 199.195 67.3598C200.67 71.1782 203.249 74.7005 206.867 76.7266C208.032 77.3811 213.421 78.2539 213.639 76.0252C214.648 65.6766 214.54 55.3279 213.313 45.0104C213.049 42.8753 205.811 43.1714 206.029 44.9949Z" fill="#263D4E"/>
<path d="M205.827 67.8585C211.837 64.1336 218.143 61.2192 224.852 58.9905C229.341 57.5099 223.641 55.2033 221.187 56.0137C213.53 58.5385 206.417 61.8738 199.552 66.113C198.077 67.0325 200.049 68.2014 200.857 68.4664C202.441 69.0118 204.413 68.7157 205.827 67.8585Z" fill="#263D4E"/>
<path d="M221.653 40.5843C223.563 51.8057 225.784 64.835 234.777 72.8147C236.92 74.7161 240.896 75.9006 243.691 74.5291C247.155 72.8147 247.124 65.1935 247.419 61.8738C247.512 60.8764 240.274 60.5023 240.15 61.8738C239.886 64.8506 239.871 72.0822 237.044 73.9057C239.265 73.8433 241.47 73.781 243.691 73.7187C238.597 71.3809 235.196 64.0558 233.348 59.1932C231.08 53.2084 230.009 46.8808 228.937 40.5999C228.673 39.1037 221.497 39.7271 221.653 40.5843Z" fill="#263D4E"/>
<path d="M230.148 39.5556C231.111 40.366 232.059 41.1921 233.022 42.0025C233.441 42.361 234.186 42.4701 234.699 42.548C235.6 42.6883 236.594 42.7194 237.494 42.6415C238.209 42.5792 239.001 42.5324 239.669 42.2207C239.917 42.1116 240.399 41.8311 240.042 41.5194C239.079 40.7089 238.131 39.8829 237.168 39.0725C236.749 38.714 236.003 38.6049 235.491 38.527C234.59 38.3867 233.596 38.3555 232.695 38.4335C231.981 38.4958 231.189 38.5426 230.521 38.8543C230.273 38.979 229.776 39.2595 230.148 39.5556Z" fill="#263D4E"/>
<path d="M234.714 55.4838C231.002 62.5751 226.374 69.0119 220.83 74.7785C219.82 75.8383 222.911 76.4928 223.361 76.5552C224.775 76.7266 226.763 76.6643 227.834 75.5421C233.363 69.7756 237.991 63.3388 241.719 56.2475C242.697 54.3929 235.693 53.6448 234.714 55.4838Z" fill="#263D4E"/>
<path d="M139.665 105.054C140.989 109.425 143.505 115.927 148.935 115.649C154.365 115.371 158.047 108.299 160.325 104.127C160.921 103.015 156.352 102.498 155.782 103.65C154.102 106.92 151.995 109.953 149.518 112.669L148.472 113.649V112.934C147.909 112.297 147.424 111.594 147.028 110.842C145.895 109.037 145.004 107.091 144.38 105.054C143.943 103.637 139.4 104.154 139.678 105.054H139.665Z" fill="#263D4E"/>
<path d="M147.108 115.715L147.373 130.469C147.373 132.283 152.114 132.283 152.087 130.469L151.809 115.715C151.809 113.901 147.081 113.901 147.108 115.715Z" fill="#263D4E"/>
<path d="M161.067 111.451C160.599 115.557 160.409 119.689 160.497 123.821C160.497 126.337 160.047 129.939 162.881 131.025C167.066 132.641 173.158 131.33 176.88 129.224C177.264 129.012 175.33 128.814 175.224 128.8C174.257 128.646 173.266 128.728 172.337 129.039C170.496 130.072 166.947 131.992 165.715 129.33C165.027 127.847 165.278 125.423 165.239 123.821C165.146 119.69 165.331 115.557 165.795 111.451C165.795 111.107 161.159 110.789 161.093 111.451H161.067Z" fill="#263D4E"/>
<path d="M163.04 122.324C166.385 122.321 169.719 121.957 172.986 121.238C173.635 121.092 174.496 120.788 173.834 120.139C173.172 119.49 171.357 119.689 170.602 119.848C168.12 120.41 165.585 120.703 163.04 120.722C162.577 120.722 160.683 120.722 160.683 121.516C160.683 122.311 162.656 122.324 163.04 122.324V122.324Z" fill="#263D4E"/>
<path d="M163.941 114.444L175.701 113.941C176.324 113.941 178.059 113.822 178.059 112.895C178.059 111.967 176.257 111.822 175.701 111.848L163.941 112.352C163.331 112.352 161.583 112.457 161.583 113.398C161.583 114.338 163.384 114.457 163.941 114.444V114.444Z" fill="#263D4E"/>
<path d="M202.719 115.689L201.765 128.933C201.646 130.549 206.361 130.655 206.48 128.933L207.433 115.689C207.539 114.073 202.838 113.967 202.719 115.689V115.689Z" fill="#263D4E"/>
<path d="M202.692 115.265C205.049 118.563 207.274 122.046 209.857 125.172C211.685 127.383 213.128 128.377 215.936 128.377C218.744 128.377 219.631 127.595 220.2 124.655C220.806 120.555 220.908 116.397 220.505 112.272C220.505 111.809 215.777 111.967 215.803 112.272C215.976 115.258 215.976 118.252 215.803 121.238C215.671 123.569 215.631 126.443 213.79 128.112L216.134 127.847H215.671L217.949 128.032C215.406 126.933 213.857 124.271 212.307 122.112L207.38 115.252C206.692 114.298 202.983 115.689 202.666 115.252L202.692 115.265Z" fill="#263D4E"/>
<path d="M238.821 112.405C235.113 110.881 230.332 110.312 226.769 112.59C223.207 114.868 222.598 120.364 223.789 124.191C224.875 127.648 228.597 128.92 231.921 128.92C233.949 128.878 235.933 128.32 237.685 127.298C239.437 126.276 240.899 124.824 241.933 123.079C242.569 122.086 238.119 121.477 237.378 122.602C236.292 124.284 234.729 126.377 232.716 126.933C230.067 127.661 228.531 124.867 228.2 122.695C227.484 118.073 229.008 111.054 235.497 113.716C236.556 114.153 241.033 113.385 238.821 112.471V112.405Z" fill="#263D4E"/>
<path d="M232.822 121.98C236.693 122.089 240.56 121.643 244.304 120.655C245.205 120.404 244.993 119.993 244.304 119.689C243.215 119.364 242.055 119.364 240.967 119.689C238.313 120.404 235.57 120.734 232.822 120.669C232.411 120.669 230.464 120.669 230.464 121.357C230.464 122.046 232.504 122.033 232.822 122.033V121.98Z" fill="#263D4E"/>
<path d="M237.431 121.543C237.06 125.807 236.782 130.085 236.556 134.376C236.556 134.959 241.232 135.118 241.271 134.376C241.483 130.085 241.77 125.807 242.132 121.543C242.132 121 237.484 120.761 237.431 121.543V121.543Z" fill="#263D4E"/>
<path d="M180.654 115.888C180.37 118.555 180.37 121.246 180.654 123.913C180.72 125.124 181.062 126.304 181.655 127.362C182.247 128.421 183.074 129.329 184.071 130.019C186.641 131.542 190.19 130.641 192.666 129.343C193.85 128.732 194.892 127.879 195.726 126.84C196.404 125.876 196.857 124.772 197.05 123.609C197.665 120.611 197.786 117.534 197.408 114.497C197.408 114.14 196.785 113.981 196.534 113.928C195.961 113.852 195.379 113.897 194.825 114.06C194.123 114.259 192.693 114.762 192.799 115.729C193.159 118.562 193.048 121.435 192.468 124.231C192.302 125.338 191.819 126.373 191.077 127.211C190.728 127.563 190.326 127.858 189.885 128.085C190.243 127.9 189.157 128.43 189.607 128.218C189.316 128.284 189.276 128.31 189.475 128.284L188.971 128.35C188.621 128.306 188.281 128.203 187.965 128.046C187.557 127.822 187.193 127.526 186.892 127.171C186.085 126.186 185.559 125.001 185.369 123.741C184.919 120.937 184.866 118.084 185.21 115.265C185.276 114.298 183.886 114.285 183.25 114.391C182.655 114.47 182.077 114.649 181.542 114.921C181.237 115.106 180.681 115.451 180.654 115.835V115.888Z" fill="#263D4E"/>
<path d="M3.01514 108.895C2.9445 116.523 3.12109 124.147 3.54489 131.767C3.62435 133.25 8.24644 132.284 8.14049 130.443C7.71669 123.079 7.54893 115.698 7.63723 108.299C7.63723 107.266 6.43204 107.226 5.6639 107.319C4.89576 107.412 3.01514 107.915 3.01514 108.895Z" fill="#263D4E"/>
<path d="M7.55774 107.677C7.79209 107.453 8.04459 107.249 8.31264 107.067C8.19345 107.147 8.80266 106.855 8.56427 106.948C8.32588 107.041 8.65698 106.948 8.67022 106.948C8.68347 106.948 8.31264 106.975 8.64373 106.975C8.97483 106.975 8.35237 106.975 8.82915 106.975C8.89537 106.975 9.23971 106.975 8.82915 106.975H9.147C9.50417 106.95 9.86257 106.95 10.2197 106.975C12.1158 106.776 14.0219 107.244 15.61 108.299C16.312 108.814 16.7852 109.582 16.9287 110.441C17.0722 111.299 16.8746 112.18 16.3781 112.895C15.7628 113.587 15.0488 114.185 14.2591 114.669C13.385 115.278 12.4844 115.861 11.6103 116.404C10.7363 116.947 9.63702 117.358 8.68347 117.848C8.16696 118.099 7.65045 118.338 7.1207 118.563L6.52473 118.815L5.59766 119.172C5.29305 119.278 3.61109 119.901 4.27328 120.497C4.93547 121.093 6.65716 120.497 7.23989 120.218C9.87822 119.231 12.4298 118.026 14.8683 116.616C15.994 115.954 17.1065 115.292 18.166 114.471C19.239 113.794 20.1997 112.954 21.0135 111.981C21.3033 111.531 21.4993 111.027 21.5896 110.499C21.6799 109.972 21.6627 109.432 21.539 108.911C21.4153 108.39 21.1877 107.9 20.8698 107.469C20.5519 107.039 20.1503 106.677 19.6891 106.405C17.5833 104.895 14.5902 104.869 12.1269 104.962C9.10727 105.094 5.63739 105.889 3.38594 108.047C2.64429 108.749 4.04813 108.816 4.47193 108.776C5.58677 108.723 6.66087 108.341 7.55774 107.677V107.677Z" fill="#263D4E"/>
<path d="M8.93513 119.834C11.9459 123.181 15.0361 126.456 18.2058 129.661C19.1726 130.654 23.5033 128.973 22.5233 127.979C19.3712 124.774 16.281 121.499 13.2526 118.152C13.0142 117.887 12.3388 117.874 12.0474 117.887C11.4298 117.903 10.8199 118.029 10.2463 118.258C9.76949 118.457 8.31267 119.132 8.92188 119.834H8.93513Z" fill="#263D4E"/>
<path d="M32.3501 113.424C30.3007 113.669 28.3953 114.603 26.9467 116.073C26.0134 117.12 25.4098 118.419 25.2117 119.808C24.9849 121.165 25.1092 122.558 25.5729 123.854C26.0365 125.15 26.824 126.306 27.8605 127.211C30.4298 129.264 34.1645 128.933 36.9722 127.569C38.2741 126.972 39.3376 125.955 39.9918 124.682C40.5464 123.231 40.7374 121.667 40.5481 120.126C40.53 118.446 39.9625 116.818 38.9323 115.49C37.8283 114.244 36.3344 113.408 34.6943 113.12C33.5403 112.979 32.3766 113.292 31.4496 113.994C31.1979 114.192 30.8536 114.497 30.9463 114.855C31.039 115.212 31.5158 115.278 31.8071 115.345C32.7834 115.627 33.6636 116.171 34.3524 116.918C35.0412 117.665 35.5121 118.587 35.7141 119.583C35.9743 120.783 36.0502 122.015 35.9392 123.238C35.912 124.312 35.509 125.343 34.8003 126.152C34.6281 126.35 34.9724 126.032 34.8003 126.152C34.7153 126.206 34.6355 126.268 34.5619 126.337C34.3235 126.549 34.9327 126.072 34.5619 126.337C34.191 126.602 34.5619 126.43 34.6678 126.337C34.7738 126.244 34.35 126.443 34.3632 126.456C34.3764 126.469 34.9724 126.284 34.5089 126.456C34.5089 126.456 35.0651 126.311 34.6546 126.456C34.244 126.602 35.0916 126.456 34.5884 126.456H34.2573C34.3367 126.456 34.6413 126.456 34.2573 126.456C34.1645 126.456 33.6348 126.35 33.8732 126.456C33.4419 126.351 33.0304 126.176 32.6548 125.94C31.7883 125.327 31.0788 124.518 30.584 123.579C30.0892 122.64 29.8231 121.597 29.8073 120.536C29.7451 119.372 29.9774 118.21 30.4828 117.159C30.5991 116.926 30.7365 116.705 30.8933 116.497C30.9609 116.394 31.0362 116.297 31.1185 116.206C31.1185 116.206 31.4496 115.861 31.3304 115.967L31.6217 115.742L31.7674 115.636C31.6482 115.715 31.6482 115.729 31.7674 115.636H31.8601C31.7518 115.705 31.6298 115.75 31.5025 115.768C31.9793 115.61 31.1317 115.768 31.6747 115.768C32.4693 115.649 34.0718 115.265 34.3235 114.351C34.5751 113.438 32.8269 113.543 32.4031 113.61L32.3501 113.424Z" fill="#263D4E"/>
<path d="M44.2563 114.153C44.0709 119.278 43.965 124.403 44.0709 129.489C44.0709 130.668 48.693 129.86 48.6665 128.257C48.5959 123.128 48.6709 118.002 48.8917 112.881C48.8917 111.769 44.349 112.484 44.2828 114.113L44.2563 114.153Z" fill="#263D4E"/>
<path d="M44.6139 114.59C47.5143 119.026 50.4412 123.463 53.5667 127.754C53.842 128.221 54.2272 128.613 54.6889 128.897C55.1506 129.181 55.6747 129.348 56.2155 129.383C57.7518 129.476 60.1092 128.933 60.9965 127.555C61.4458 126.493 61.6582 125.345 61.619 124.191C61.7603 122.885 61.8794 121.56 61.9766 120.218C62.1729 117.216 62.2171 114.206 62.109 111.199C62.109 110.365 57.4604 111.093 57.5134 112.431C57.6017 115.274 57.562 118.121 57.3942 120.973C57.3147 122.404 57.1823 123.821 57.0366 125.238C56.9572 125.913 56.9042 126.562 56.785 127.291C56.785 127.569 56.6393 127.807 56.5598 128.085C56.0698 128.999 56.9572 128.774 59.2086 127.383C59.0704 127.342 58.9435 127.269 58.8378 127.171C57.9303 126.301 57.1621 125.296 56.5598 124.191L54.017 120.51C52.4013 118.126 50.7988 115.742 49.2228 113.332C48.4546 112.166 44.2034 113.954 44.6139 114.563V114.59Z" fill="#263D4E"/>
<path d="M90.0799 113.597C90.5699 113.597 91.0467 113.491 91.5367 113.451H92.3049H91.9473H92.5433C93.5233 113.451 94.5033 113.451 95.4701 113.517C96.0932 113.525 96.7112 113.404 97.2845 113.159C97.7731 112.977 98.1969 112.655 98.503 112.232C98.6148 112.094 98.6757 111.921 98.6757 111.742C98.6757 111.564 98.6148 111.391 98.503 111.252C98.1556 110.959 97.7126 110.803 97.2581 110.815C95.0497 110.675 92.8332 110.737 90.6362 111.001C90.0217 111.072 89.43 111.276 88.9012 111.597C88.5966 111.782 88.0801 112.193 88.0271 112.603C87.9079 113.636 89.3515 113.729 90.0402 113.649L90.0799 113.597Z" fill="#263D4E"/>
<path d="M90.9673 113.702C90.5878 117.907 90.4463 122.13 90.5435 126.35C90.5435 126.721 91.1924 126.96 91.444 127.026C92.0159 127.139 92.6067 127.112 93.1657 126.946C94.0531 126.681 95.1788 126.178 95.1523 125.119C95.0697 121.141 95.2111 117.161 95.5761 113.199C95.6688 112.166 94.3312 112.021 93.5763 112.126C92.9558 112.198 92.3588 112.406 91.8281 112.736C91.497 112.961 91.007 113.305 90.9673 113.742V113.702Z" fill="#263D4E"/>
<path d="M86.1598 127.873C90.0269 127.807 93.8677 127.595 97.7216 127.317C98.8435 127.302 99.9287 126.915 100.807 126.218C101.536 125.463 100.158 125.397 99.7082 125.423C97.8938 125.556 96.0794 125.675 94.265 125.768C93.3821 125.821 92.4991 125.86 91.6162 125.887H90.2918H89.0999C87.9542 125.873 86.827 126.176 85.8419 126.761C85.63 126.893 85.2194 127.158 85.3122 127.463C85.4049 127.767 85.9081 127.807 86.12 127.807L86.1598 127.873Z" fill="#263D4E"/>
<path d="M103.509 110.405C103.297 113.504 103.231 116.629 103.324 119.742C103.324 121.251 103.403 122.761 103.562 124.271C103.563 125.58 103.876 126.869 104.476 128.032C105.8 130.31 108.939 130.946 111.376 130.681C114.462 130.27 117.362 128.721 120.21 127.516C121.031 127.158 121.971 126.085 121.309 125.185C120.647 124.284 119.097 124.496 118.183 124.88L114.7 126.35C113.778 126.798 112.81 127.144 111.813 127.383C111.438 127.476 111.048 127.49 110.667 127.423C110.286 127.357 109.924 127.212 109.602 126.998C109.281 126.783 109.008 126.504 108.8 126.179C108.592 125.853 108.455 125.487 108.396 125.105C108.015 122.737 107.864 120.338 107.946 117.94C107.946 115.292 107.946 112.709 108.171 110.1C108.33 107.756 103.655 108.431 103.509 110.471V110.405Z" fill="#263D4E"/>
<path d="M107.072 112.603L107.734 112.444C107.257 112.563 108.025 112.444 108.118 112.365L109.442 112.1L110.224 111.967H110.555C111.005 111.967 111.455 111.848 111.879 111.809C113.673 111.605 115.478 111.52 117.283 111.557C118.426 111.552 119.548 111.251 120.541 110.683C120.713 110.577 121.163 110.338 121.097 110.06C121.031 109.782 120.474 109.809 120.302 109.809C115.733 109.735 111.174 110.26 106.741 111.371C106.317 111.464 104.476 111.941 104.608 112.603C104.741 113.265 106.833 112.603 107.072 112.603Z" fill="#263D4E"/>
<path d="M107.522 120.947C109.92 120.55 112.339 120.285 114.766 120.152C115.383 120.092 115.977 119.887 116.501 119.556C116.819 119.344 117.309 118.92 117.349 118.497C117.468 117.397 116.025 117.305 115.323 117.344C112.899 117.476 110.485 117.741 108.092 118.139C107.472 118.213 106.875 118.421 106.343 118.748C106.039 118.96 105.535 119.371 105.496 119.795C105.39 120.841 106.82 121.119 107.522 120.947V120.947Z" fill="#263D4E"/>
<path d="M66.0689 114.034L65.8173 128.231C65.8173 128.906 70.3996 128.31 70.4261 126.999L70.6777 112.802C70.6777 112.127 66.0954 112.722 66.0689 114.034V114.034Z" fill="#263D4E"/>
<path d="M66.2278 114.073C68.2322 118.549 70.9768 122.655 74.3463 126.218C75.1866 127.223 76.3457 127.91 77.6308 128.165C78.447 128.277 79.2784 128.168 80.038 127.849C80.7975 127.529 81.4573 127.012 81.9482 126.35C82.5419 125.278 82.8944 124.089 82.9813 122.867C83.2148 121.552 83.3784 120.226 83.4713 118.894C83.6964 115.888 83.6567 112.868 83.617 109.848C83.617 108.723 82.4912 108.339 81.5112 108.418C80.5312 108.498 78.9419 109.133 78.9551 110.233C78.9551 113.04 79.0346 115.848 78.8624 118.656C78.777 120.106 78.6179 121.552 78.3857 122.986C78.2961 123.675 78.1589 124.356 77.9751 125.026C77.9751 125.145 77.8294 125.357 77.8162 125.45C77.8824 124.986 79.2465 124.642 79.4452 124.907C79.3127 124.735 78.9684 124.602 78.8095 124.456C78.6505 124.311 78.5049 124.192 78.3724 124.019C77.9221 123.529 77.4851 123.039 77.048 122.523C76.2269 121.543 75.4323 120.536 74.6906 119.49C73.2053 117.403 71.911 115.187 70.8235 112.868C70.5568 112.432 70.1451 112.104 69.6606 111.942C69.1762 111.78 68.65 111.793 68.1747 111.981C67.4728 112.166 65.804 113.08 66.2808 114.1L66.2278 114.073Z" fill="#263D4E"/>
</svg>
