<svg width="16" height="24" viewBox="0 0 16 24" fill="none" xmlns="http://www.w3.org/2000/svg">
<path d="M11.7453 6.35916C11.8672 6.23693 11.9656 6.09701 12.0385 5.94279C12.0988 5.81502 12.0439 5.66205 11.9161 5.60183C11.7884 5.54107 11.6354 5.59647 11.5752 5.72424C11.5275 5.82521 11.4629 5.91688 11.3827 5.99712C11.0316 6.34862 10.4742 6.37954 10.0864 6.06967C9.92201 5.93868 9.68934 5.95011 9.54531 6.09451L6.16285 9.47697C6.12371 9.44963 6.08297 9.42372 6.04115 9.39977C5.91838 9.33026 5.76184 9.37315 5.69197 9.49627C5.62228 9.61904 5.66535 9.77558 5.78847 9.84545C5.83225 9.87029 5.87478 9.89906 5.91535 9.93123C5.99255 9.9927 6.0844 10.0229 6.17536 10.0229C6.27865 10.0229 6.38051 9.98394 6.45717 9.90692L9.83963 6.52446C10.4261 6.93886 11.2303 6.87417 11.7453 6.35916L11.7453 6.35916Z" fill="#263D4E"/>
<path d="M6.07083 5.91474C5.93949 6.07843 5.94968 6.31128 6.09496 6.45639L7.1675 7.52894C7.21754 7.57898 7.28312 7.60399 7.3487 7.60399C7.41429 7.60399 7.47987 7.57897 7.5299 7.52894C7.63016 7.42869 7.63016 7.26678 7.5299 7.16671L6.52561 6.16224C6.93913 5.57557 6.87426 4.77143 6.35978 4.25677C5.84512 3.74229 5.04152 3.67706 4.45431 4.09129L3.98362 3.6206C3.88337 3.52035 3.72146 3.52035 3.62139 3.6206C3.52114 3.72085 3.52114 3.88275 3.62139 3.98283L4.15965 4.52109C4.30386 4.66602 4.53725 4.67691 4.70167 4.54611C5.08945 4.23642 5.64644 4.26769 5.99742 4.6192C6.34856 4.97052 6.38001 5.52737 6.07086 5.91476L6.07083 5.91474Z" fill="#263D4E"/>
<path d="M11.8423 11.48C11.6981 11.3353 11.4647 11.3247 11.3007 11.4557C10.9131 11.7652 10.3561 11.7336 10.0049 11.3825C9.65342 11.0313 9.62215 10.4743 9.93166 10.0867C10.0623 9.92303 10.0521 9.69036 9.90736 9.54507L8.80173 8.43945C8.70148 8.3392 8.53958 8.3392 8.43951 8.43945C8.33926 8.5397 8.33926 8.7016 8.43951 8.80167L9.47742 9.83959C9.06373 10.4264 9.12842 11.2306 9.6429 11.7451C9.93221 12.0344 10.3125 12.1813 10.6945 12.1813C10.9924 12.1813 11.2912 12.0919 11.5482 11.9105L11.6967 12.059C11.7969 12.1587 11.9588 12.1593 12.0589 12.0585C12.1588 11.9582 12.1588 11.7963 12.0584 11.6963L11.8423 11.48Z" fill="#263D4E"/>
<path d="M13.4581 2.15021C11.8196 0.621244 9.6829 -0.134136 7.43318 0.019575C3.49983 0.290843 0.313526 3.46009 0.0221155 7.39175C-0.175348 10.0601 0.9587 12.639 3.05589 14.2895C3.45476 14.6033 3.69242 15.1096 3.69242 15.6442V16.1103C3.69242 16.4357 3.81197 16.7449 4.01694 16.9849C3.81734 17.1786 3.69314 17.4473 3.69314 17.7383V18.5124C3.69314 19.0925 4.16507 19.5641 4.74478 19.5641H5.10522V20.4928C5.10522 21.3859 5.83182 22.1123 6.72476 22.1123H7.01837C7.0416 22.637 7.47066 23.056 8.0007 23.056C8.53075 23.056 8.9598 22.637 8.98267 22.1123H9.27628C10.1694 22.1123 10.8958 21.3857 10.8958 20.4928V19.5641H11.2563C11.8363 19.5641 12.3079 19.0921 12.3079 18.5124V17.7383C12.3079 17.4463 12.1833 17.1781 11.9837 16.9845C12.1887 16.7458 12.307 16.4391 12.307 16.1105L12.3072 15.6625C12.3072 15.1177 12.5493 14.6007 12.9548 14.2801C14.8903 12.7515 16 10.4623 16 7.99942C16.0004 5.79014 15.0734 3.6579 13.4576 2.15016L13.4581 2.15021ZM11.5399 18.5127C11.5399 18.6687 11.4129 18.7957 11.2569 18.7957H10.5939C10.5674 18.788 10.5412 18.7793 10.5122 18.7793H8.00041C7.8378 18.7793 7.70574 18.9115 7.70574 19.0739C7.70574 19.2364 7.83798 19.3686 8.00041 19.3686H10.1278V20.493C10.1278 20.9623 9.74614 21.344 9.27686 21.344H6.72608C6.2568 21.344 5.87509 20.9623 5.87509 20.493V19.3686H6.03413C6.19675 19.3686 6.32881 19.2364 6.32881 19.0739C6.32881 18.9115 6.19657 18.7793 6.03413 18.7793H5.35044C5.32149 18.7793 5.29504 18.788 5.26877 18.7957H4.74588C4.58987 18.7957 4.46282 18.6687 4.46282 18.5127V17.7385C4.46282 17.6066 4.55574 17.4903 4.68422 17.4621C4.73247 17.4515 4.77572 17.4315 4.81432 17.4058H11.1842C11.2233 17.4317 11.2675 17.4513 11.3164 17.4617C11.4463 17.4889 11.5405 17.6057 11.5405 17.7387L11.5401 18.5126L11.5399 18.5127ZM13.2907 12.9283L12.7042 12.3422C12.6039 12.2419 12.442 12.2419 12.342 12.3422C12.2417 12.4424 12.2417 12.6045 12.342 12.7044L12.9276 13.2898C12.7834 13.4238 12.6352 13.5545 12.4792 13.678C11.8906 14.1427 11.5392 14.8851 11.5392 15.6632V16.1106C11.5392 16.3302 11.4168 16.5282 11.2201 16.6265C11.155 16.659 11.1045 16.7082 11.0684 16.7654H4.946C4.90865 16.71 4.85754 16.663 4.79285 16.6324C4.59181 16.5377 4.46154 16.3327 4.46154 16.1106V15.6446C4.46154 14.8763 4.11397 14.144 3.53159 13.6858C3.37219 13.5604 3.22137 13.4269 3.07429 13.29L4.52197 11.8423C4.66689 11.6974 4.67726 11.4642 4.54627 11.3011C4.23676 10.9135 4.26839 10.3565 4.61954 10.0049C4.76018 9.86431 4.93691 9.77138 5.13118 9.73565C5.27021 9.71027 5.36259 9.57678 5.33722 9.43775C5.31184 9.29872 5.17871 9.20598 5.03933 9.23171C4.74233 9.28568 4.47197 9.42793 4.2575 9.64255C3.74285 10.157 3.67798 10.9608 4.09167 11.548L2.71262 12.9274C1.34843 11.4626 0.638617 9.48582 0.789446 7.44869C0.914002 5.76853 1.62379 4.24299 2.71317 3.07515L2.99444 3.35643C3.04448 3.40646 3.11006 3.43148 3.17564 3.43148C3.24122 3.43148 3.30681 3.40646 3.35684 3.35643C3.45709 3.25617 3.45709 3.09409 3.35684 2.9942L3.07575 2.7131C4.25282 1.61553 5.79254 0.903249 7.48679 0.786364C9.5156 0.647512 11.4497 1.32925 12.9307 2.70954L11.48 4.16023C11.3355 4.30516 11.3253 4.53836 11.4563 4.70133C11.5495 4.81838 11.6133 4.95187 11.6455 5.09822C11.6721 5.21777 11.7779 5.29908 11.8955 5.29908C11.9137 5.29908 11.9323 5.29711 11.9511 5.29318C12.0892 5.26263 12.1766 5.1261 12.146 4.98778C12.104 4.79711 12.0233 4.61448 11.9109 4.45419L13.2912 3.0739C14.5294 4.40574 15.2322 6.17328 15.2322 8.00088C15.2324 9.85457 14.534 11.5983 13.2908 12.9283L13.2907 12.9283Z" fill="#263D4E"/>
<path d="M7.01688 18.7793H6.98007C6.81745 18.7793 6.68539 18.9115 6.68539 19.074C6.68539 19.2364 6.81763 19.3686 6.98007 19.3686H7.01688C7.1795 19.3686 7.31156 19.2364 7.31156 19.074C7.31156 18.9115 7.17968 18.7793 7.01688 18.7793Z" fill="#263D4E"/>
</svg>
